<svg id="svg" version="1.1" width="400" height="403.7383177570094" viewBox="0 0 400 403.7383177570094" xmlns="http://www.w3.org/2000/svg" xmlns:xlink="http://www.w3.org/1999/xlink" ><g id="svgg"><path id="path0" d="M286.449 26.459 L 286.360 28.400 288.380 28.400 C 290.198 28.400,290.403 28.310,290.433 27.500 C 290.451 27.005,290.548 26.100,290.648 25.489 C 290.829 24.384,290.820 24.379,288.684 24.449 L 286.538 24.519 286.449 26.459 M345.606 26.300 L 345.600 28.400 349.400 28.400 L 353.200 28.400 353.187 27.300 C 353.164 25.287,348.778 23.355,347.388 24.746 C 346.994 25.139,346.232 25.071,345.906 24.613 C 345.744 24.386,345.609 25.145,345.606 26.300 M267.606 29.700 C 267.600 31.264,267.799 31.447,268.800 30.800 C 269.333 30.455,269.333 30.411,268.800 30.400 C 268.303 30.390,268.295 30.328,268.751 30.039 C 269.054 29.847,269.197 29.519,269.069 29.311 C 268.940 29.103,269.089 28.933,269.400 28.933 C 269.711 28.933,269.855 29.111,269.721 29.328 C 269.584 29.549,269.680 29.598,269.938 29.438 C 270.730 28.949,270.445 28.400,269.400 28.400 C 268.850 28.400,268.397 28.625,268.394 28.900 C 268.390 29.233,268.258 29.200,268.000 28.800 C 267.712 28.354,267.611 28.584,267.606 29.700 M234.138 40.217 C 234.008 40.557,234.009 40.942,234.141 41.074 C 234.426 41.359,235.600 40.455,235.600 39.951 C 235.600 39.347,234.387 39.568,234.138 40.217 M235.200 40.840 C 233.536 42.574,233.679 43.200,235.740 43.200 C 237.892 43.200,238.006 43.002,237.633 39.925 C 237.560 39.323,236.144 39.856,235.200 40.840 M226.667 43.467 C 226.520 43.613,226.400 44.423,226.400 45.267 L 226.400 46.800 228.400 46.800 L 230.400 46.800 230.400 45.000 L 230.400 43.200 228.667 43.200 C 227.713 43.200,226.813 43.320,226.667 43.467 M383.200 45.400 L 383.200 47.600 385.000 47.600 L 386.800 47.600 386.800 45.400 L 386.800 43.200 385.000 43.200 L 383.200 43.200 383.200 45.400 M219.067 47.067 C 218.920 47.213,218.800 48.113,218.800 49.067 L 218.800 50.800 220.800 50.800 L 222.800 50.800 222.800 48.800 L 222.800 46.800 221.067 46.800 C 220.113 46.800,219.213 46.920,219.067 47.067 M212.500 51.300 C 212.555 51.575,212.393 51.761,212.140 51.713 C 211.865 51.662,211.680 52.185,211.680 53.013 C 211.680 54.308,214.279 55.188,215.246 54.221 C 216.128 53.338,215.024 50.800,213.758 50.800 C 212.885 50.800,212.436 50.979,212.500 51.300 M386.880 64.300 L 387.000 66.600 388.900 66.638 L 390.800 66.676 390.800 64.338 L 390.800 62.000 388.780 62.000 L 386.760 62.000 386.880 64.300 M189.314 67.337 C 189.291 69.069,189.295 69.074,190.746 69.093 C 191.974 69.109,192.045 69.068,191.200 68.829 C 190.532 68.641,190.242 68.310,190.327 67.833 C 190.412 67.356,190.292 67.220,189.965 67.422 C 189.643 67.621,189.579 67.557,189.779 67.235 C 189.945 66.966,190.304 66.831,190.577 66.936 C 190.849 67.040,191.326 66.965,191.636 66.769 C 192.067 66.497,191.993 66.411,191.324 66.406 C 190.842 66.403,190.336 66.220,190.200 66.000 C 189.677 65.154,189.337 65.668,189.314 67.337 M191.200 65.895 C 191.750 65.997,192.332 66.288,192.494 66.540 C 192.683 66.836,192.790 66.750,192.794 66.300 C 192.799 65.765,192.494 65.613,191.500 65.654 C 190.399 65.701,190.353 65.737,191.200 65.895 M174.900 77.810 C 173.998 78.774,173.653 79.862,174.395 79.403 C 174.622 79.263,174.689 79.423,174.553 79.779 C 174.382 80.223,173.757 80.400,172.357 80.400 L 170.400 80.400 170.400 82.400 L 170.400 84.400 172.200 84.400 C 173.922 84.400,174.002 84.348,174.050 83.200 C 174.078 82.540,174.145 81.820,174.200 81.600 C 174.255 81.380,174.322 81.020,174.350 80.800 C 174.378 80.580,175.210 80.400,176.200 80.400 L 178.000 80.400 178.000 78.753 C 178.000 77.303,177.904 77.132,177.199 77.316 C 176.759 77.431,176.500 77.362,176.623 77.163 C 177.099 76.392,175.754 76.898,174.900 77.810 M166.463 86.227 C 166.536 88.158,166.972 88.642,167.113 86.947 C 167.161 86.368,167.556 85.585,167.991 85.208 C 168.766 84.535,168.758 84.521,167.589 84.487 C 166.429 84.454,166.397 84.503,166.463 86.227 M163.026 88.357 C 162.876 88.601,162.979 88.800,163.256 88.800 C 163.648 88.800,163.653 88.907,163.280 89.280 C 163.016 89.544,162.814 90.129,162.832 90.580 C 162.857 91.228,162.950 91.162,163.278 90.261 C 163.522 89.590,164.208 88.898,164.946 88.577 C 165.988 88.124,166.051 88.029,165.324 88.016 C 164.842 88.007,164.324 88.199,164.174 88.443 C 163.978 88.759,163.814 88.747,163.600 88.400 C 163.386 88.053,163.222 88.041,163.026 88.357 M159.288 92.806 C 159.328 94.220,159.613 94.120,159.776 92.635 C 159.839 92.066,159.747 91.600,159.572 91.600 C 159.397 91.600,159.269 92.143,159.288 92.806 M155.200 97.377 L 155.200 99.154 153.500 99.277 L 151.800 99.400 151.678 101.300 L 151.556 103.200 153.556 103.200 L 155.556 103.200 155.678 101.300 L 155.800 99.400 157.500 99.277 L 159.200 99.154 159.200 97.377 L 159.200 95.600 157.200 95.600 L 155.200 95.600 155.200 97.377 M386.800 115.580 L 386.800 117.600 388.800 117.600 L 390.800 117.600 390.800 115.671 L 390.800 113.743 388.800 113.652 L 386.800 113.560 386.800 115.580 M180.200 115.862 C 178.433 116.780,178.000 117.535,178.000 119.692 L 178.000 121.631 183.002 121.575 C 188.384 121.514,188.424 121.497,188.687 119.227 C 188.872 117.625,187.235 116.431,184.000 115.809 C 183.230 115.661,182.330 115.472,182.000 115.390 C 181.670 115.307,180.860 115.519,180.200 115.862 M239.069 117.076 C 237.540 117.709,237.133 119.473,238.139 121.102 C 238.443 121.594,245.200 121.693,245.200 121.206 C 245.200 121.024,245.560 120.969,246.000 121.084 C 246.440 121.199,246.800 121.098,246.800 120.859 C 246.800 120.620,247.054 120.522,247.364 120.641 C 248.003 120.887,248.613 119.469,248.175 118.759 C 248.022 118.512,248.146 118.153,248.449 117.961 C 248.818 117.728,248.439 117.594,247.300 117.556 C 245.673 117.502,245.037 117.419,244.600 117.200 C 244.490 117.145,244.235 117.078,244.033 117.050 C 243.832 117.022,243.532 116.865,243.367 116.700 C 242.874 116.208,240.706 116.397,239.069 117.076 M136.800 120.097 L 136.800 122.044 138.700 121.922 C 140.531 121.804,140.598 121.756,140.549 120.600 C 140.430 117.825,140.531 117.956,138.600 118.056 L 136.800 118.149 136.800 120.097 M129.278 131.100 L 129.400 133.000 131.100 133.123 L 132.800 133.246 132.800 131.223 L 132.800 129.200 130.978 129.200 L 129.156 129.200 129.278 131.100 M345.600 134.517 L 345.600 136.234 349.287 136.217 L 352.974 136.200 353.117 134.500 L 353.259 132.800 349.430 132.800 L 345.600 132.800 345.600 134.517 M322.476 137.800 C 322.566 138.570,322.496 139.200,322.320 139.200 C 322.144 139.200,322.000 139.380,322.000 139.600 C 322.000 139.826,323.133 140.000,324.600 140.000 L 327.200 140.000 327.200 138.200 L 327.200 136.400 324.756 136.400 L 322.312 136.400 322.476 137.800 M307.852 141.700 C 307.504 142.998,307.546 144.081,307.935 143.840 C 308.252 143.644,308.532 140.800,308.234 140.800 C 308.157 140.800,307.985 141.205,307.852 141.700 M305.800 143.600 C 305.096 143.902,305.135 143.947,306.124 143.972 C 306.776 143.988,307.144 143.832,307.000 143.600 C 306.864 143.380,306.718 143.213,306.676 143.228 C 306.634 143.244,306.240 143.411,305.800 143.600 M292.464 145.300 C 292.622 147.960,293.720 148.253,295.787 146.187 C 297.707 144.266,297.586 144.000,294.794 144.000 L 292.387 144.000 292.464 145.300 M296.469 146.039 C 296.180 146.500,296.057 146.990,296.194 147.127 C 296.487 147.420,297.185 146.424,297.194 145.700 C 297.202 145.009,297.074 145.069,296.469 146.039 M278.077 149.300 L 278.200 151.000 280.300 151.121 L 282.400 151.242 282.400 149.421 L 282.400 147.600 280.177 147.600 L 277.954 147.600 278.077 149.300 M267.153 151.500 C 267.127 151.665,267.131 151.949,267.163 152.131 C 267.195 152.313,267.048 153.086,266.837 153.850 L 266.454 155.238 268.727 155.119 L 271.000 155.000 271.122 153.100 L 271.244 151.200 269.222 151.200 C 268.110 151.200,267.179 151.335,267.153 151.500 M132.615 158.776 C 132.487 158.982,132.501 159.891,132.646 160.795 L 132.908 162.438 136.382 162.368 L 139.856 162.298 139.943 160.607 L 140.031 158.917 137.557 158.659 C 134.162 158.304,132.888 158.334,132.615 158.776 M144.698 158.714 L 140.396 158.827 140.498 160.622 L 140.600 162.416 156.381 162.390 C 168.063 162.371,172.316 162.239,172.757 161.882 C 173.227 161.502,173.290 161.506,173.053 161.900 C 172.886 162.178,172.946 162.400,173.189 162.400 C 173.888 162.400,174.170 161.153,173.558 160.766 C 173.216 160.549,173.180 160.410,173.465 160.406 C 173.720 160.403,173.884 160.085,173.828 159.700 C 173.662 158.556,163.592 158.215,144.698 158.714 M323.600 160.982 C 323.600 162.701,323.649 162.773,324.997 163.026 C 327.150 163.430,327.600 163.082,327.600 161.013 L 327.600 159.200 325.600 159.200 L 323.600 159.200 323.600 160.982 M110.597 166.951 C 110.521 167.198,110.491 168.120,110.530 169.000 L 110.600 170.600 112.500 170.722 L 114.400 170.844 114.400 168.637 L 114.400 166.429 112.568 166.466 C 111.560 166.486,110.673 166.705,110.597 166.951 M308.800 172.200 L 308.800 174.000 310.600 174.000 L 312.400 174.000 312.400 172.200 L 312.400 170.400 310.600 170.400 L 308.800 170.400 308.800 172.200 M107.067 177.867 C 106.920 178.013,106.800 178.960,106.800 179.970 L 106.800 181.806 108.600 181.663 L 110.400 181.519 110.400 179.560 L 110.400 177.600 108.867 177.600 C 108.023 177.600,107.213 177.720,107.067 177.867 M335.500 180.687 C 334.471 180.842,334.400 180.981,334.400 182.827 L 334.400 184.800 336.400 184.800 L 338.400 184.800 338.400 182.600 C 338.400 180.201,338.457 180.239,335.500 180.687 M103.281 191.103 L 103.400 193.339 105.100 193.474 L 106.800 193.608 106.800 191.238 L 106.800 188.867 104.981 188.867 L 103.162 188.867 103.281 191.103 M332.100 199.489 C 330.831 199.647,330.800 199.697,330.800 201.625 L 330.800 203.600 332.600 203.600 L 334.400 203.600 334.400 201.400 C 334.400 199.873,334.247 199.220,333.900 199.264 C 333.625 199.299,332.815 199.401,332.100 199.489 M99.614 204.774 C 99.048 205.831,99.091 206.513,99.700 206.147 C 100.053 205.935,100.041 206.042,99.662 206.510 C 98.760 207.623,99.319 208.198,101.333 208.229 L 103.200 208.257 103.200 206.201 C 103.200 204.193,103.173 204.145,102.024 204.145 C 101.378 204.145,100.883 204.248,100.924 204.373 C 100.966 204.498,100.820 204.645,100.600 204.700 C 100.380 204.755,100.245 204.620,100.300 204.400 C 100.468 203.728,100.053 203.954,99.614 204.774 M327.084 214.526 C 326.072 217.163,328.206 219.945,329.979 218.300 C 330.410 217.900,330.461 217.900,330.235 218.300 C 330.080 218.575,330.143 218.800,330.376 218.800 C 330.627 218.800,330.800 217.822,330.800 216.400 L 330.800 214.000 329.043 214.000 C 327.959 214.000,327.208 214.202,327.084 214.526 M323.200 227.622 L 323.200 230.044 325.100 229.922 L 327.000 229.800 327.120 227.500 L 327.240 225.200 325.220 225.200 L 323.200 225.200 323.200 227.622 M95.676 229.691 L 95.666 232.856 97.133 232.643 C 97.940 232.526,98.735 232.423,98.900 232.415 C 99.065 232.407,99.200 231.049,99.200 229.397 L 99.200 226.394 97.443 226.460 L 95.686 226.526 95.676 229.691 M110.367 238.300 C 110.348 238.905,110.288 239.814,110.232 240.319 C 110.138 241.174,110.260 241.230,111.965 241.119 L 113.800 241.000 113.919 239.100 L 114.038 237.200 112.219 237.200 C 110.509 237.200,110.398 237.266,110.367 238.300 M256.798 241.648 C 256.347 241.962,256.480 242.003,257.334 241.816 C 258.071 241.655,258.377 241.713,258.210 241.984 C 258.068 242.213,257.683 242.400,257.353 242.400 C 257.023 242.400,256.856 242.568,256.983 242.772 C 257.109 242.977,257.045 243.249,256.840 243.375 C 256.301 243.708,256.380 247.339,256.933 247.691 C 257.276 247.909,257.278 247.989,256.942 247.994 C 256.606 247.998,256.474 253.019,256.444 266.960 L 256.403 285.920 258.202 286.063 L 260.000 286.206 260.000 280.878 C 260.000 276.043,259.935 275.556,259.300 275.621 C 257.840 275.769,257.200 275.580,257.200 275.000 C 257.200 274.581,257.622 274.400,258.600 274.400 L 260.000 274.400 260.000 257.865 L 260.000 241.330 258.698 241.281 C 257.982 241.254,257.127 241.419,256.798 241.648 M316.000 246.388 L 316.000 248.376 317.400 248.323 C 318.387 248.286,318.802 248.083,318.806 247.635 C 318.811 247.079,318.860 247.075,319.199 247.600 C 319.551 248.147,319.557 247.618,319.233 244.700 C 319.215 244.535,318.480 244.400,317.600 244.400 L 316.000 244.400 316.000 246.388 M312.000 253.686 L 312.000 255.811 313.900 255.806 L 315.800 255.800 315.857 253.770 L 315.914 251.739 313.957 251.650 L 312.000 251.560 312.000 253.686 M132.800 258.200 L 132.800 260.000 134.800 260.000 C 136.606 260.000,136.801 259.913,136.805 259.100 C 136.808 258.605,136.919 257.795,137.052 257.300 C 137.281 256.445,137.181 256.400,135.047 256.400 L 132.800 256.400 132.800 258.200 M95.600 265.581 L 95.600 267.600 98.157 267.600 L 100.713 267.600 100.657 265.700 L 100.600 263.800 98.100 263.681 L 95.600 263.562 95.600 265.581 M54.400 269.349 C 54.400 271.512,55.355 271.770,61.798 271.354 L 65.926 271.087 66.083 269.743 C 66.318 267.729,65.947 267.600,59.920 267.600 L 54.400 267.600 54.400 269.349 M302.700 270.722 L 300.800 270.844 300.800 272.822 L 300.800 274.800 302.613 274.800 C 304.659 274.800,304.914 274.480,304.725 272.146 L 304.600 270.600 302.700 270.722 M293.200 282.750 C 293.200 285.408,293.633 286.046,295.354 285.920 L 297.000 285.800 297.122 283.900 L 297.244 282.000 295.222 282.000 C 293.512 282.000,293.200 282.116,293.200 282.750 M286.569 294.137 C 286.455 294.433,286.416 296.008,286.481 297.637 L 286.600 300.600 289.188 300.721 C 293.569 300.927,293.600 300.903,293.600 297.235 C 293.600 293.560,293.644 293.600,289.555 293.600 C 287.597 293.600,286.714 293.759,286.569 294.137 M45.000 298.164 C 44.340 298.692,43.703 299.064,43.583 298.990 C 43.464 298.916,43.374 303.164,43.383 308.429 C 43.392 313.694,43.451 317.846,43.515 317.655 C 43.579 317.464,44.183 317.824,44.858 318.454 C 45.532 319.084,46.246 319.600,46.442 319.600 C 46.644 319.600,46.800 314.717,46.800 308.400 C 46.800 302.240,46.665 297.201,46.500 297.202 C 46.335 297.203,45.660 297.636,45.000 298.164 M278.400 302.380 L 278.400 304.400 276.623 304.400 L 274.846 304.400 274.723 306.100 C 274.600 307.796,274.595 307.801,272.800 308.000 C 271.775 308.114,270.978 308.415,270.950 308.700 C 270.923 308.975,270.877 309.830,270.850 310.600 C 270.801 311.985,270.781 312.000,269.000 312.000 L 267.200 312.000 267.200 313.800 L 267.200 315.600 265.400 315.600 C 263.713 315.600,263.597 315.669,263.557 316.700 C 263.451 319.462,263.497 319.393,261.678 319.524 L 259.956 319.648 260.078 321.324 C 260.184 322.775,260.335 323.016,261.200 323.117 C 261.900 323.200,262.040 323.126,261.666 322.873 C 261.238 322.582,261.264 322.461,261.799 322.256 C 262.750 321.891,262.800 321.920,262.555 322.700 C 262.367 323.298,262.427 323.287,262.967 322.624 C 263.315 322.196,263.597 321.566,263.594 321.224 C 263.588 320.675,263.541 320.672,263.200 321.200 C 262.987 321.530,262.815 321.620,262.819 321.400 C 262.836 320.341,263.957 319.600,265.544 319.600 L 267.200 319.600 267.200 317.600 L 267.200 315.600 269.200 315.600 L 271.200 315.600 271.200 313.800 L 271.200 312.000 273.000 312.000 L 274.800 312.000 274.800 310.200 L 274.800 308.400 276.600 308.400 L 278.400 308.400 278.400 306.400 C 278.400 304.404,278.403 304.400,279.720 304.400 C 280.446 304.400,281.282 304.175,281.579 303.900 C 282.010 303.500,282.061 303.500,281.835 303.900 C 281.680 304.175,281.743 304.400,281.976 304.400 C 282.216 304.400,282.400 303.562,282.400 302.471 L 282.400 300.543 280.400 300.452 L 278.400 300.360 278.400 302.380 M247.359 334.067 C 247.245 334.250,247.523 334.400,247.976 334.400 C 248.429 334.400,248.800 334.250,248.800 334.067 C 248.800 333.883,248.522 333.733,248.182 333.733 C 247.843 333.733,247.472 333.883,247.359 334.067 M222.400 346.967 C 222.400 347.719,222.291 348.619,222.157 348.967 C 221.955 349.493,222.259 349.600,223.957 349.600 L 226.000 349.600 226.000 347.600 L 226.000 345.600 224.200 345.600 C 222.418 345.600,222.400 345.613,222.400 346.967 M46.800 347.382 C 46.800 347.729,48.886 349.647,49.067 349.467 C 49.167 349.367,48.779 348.816,48.206 348.242 C 47.204 347.241,46.800 346.993,46.800 347.382 M46.875 348.825 C 46.971 349.114,47.286 349.429,47.575 349.525 C 47.875 349.625,48.025 349.475,47.925 349.175 C 47.829 348.886,47.514 348.571,47.225 348.475 C 46.925 348.375,46.775 348.525,46.875 348.825 M203.079 359.757 C 202.915 360.174,202.875 360.609,202.991 360.724 C 203.355 361.089,203.676 360.491,203.524 359.731 C 203.383 359.035,203.362 359.036,203.079 359.757 M192.395 361.700 C 192.392 362.195,192.279 363.012,192.144 363.515 C 191.908 364.395,191.981 364.426,193.997 364.302 L 196.095 364.173 196.247 362.486 L 196.398 360.800 194.399 360.800 C 192.594 360.800,192.399 360.887,192.395 361.700 M58.000 365.520 C 58.000 366.136,58.225 366.882,58.500 367.179 C 58.900 367.610,58.900 367.661,58.500 367.435 C 58.225 367.280,58.000 367.343,58.000 367.576 C 58.000 367.818,58.859 368.000,60.000 368.000 L 62.000 368.000 62.000 366.200 L 62.000 364.400 60.000 364.400 C 58.076 364.400,58.000 364.443,58.000 365.520 M184.489 365.435 C 184.442 366.004,183.998 366.824,183.502 367.257 C 182.607 368.039,182.607 368.042,183.474 367.623 C 184.568 367.093,184.918 367.086,184.600 367.600 C 184.464 367.820,184.545 368.000,184.780 368.000 C 185.029 368.000,185.178 367.251,185.138 366.200 C 185.065 364.258,184.629 363.744,184.489 365.435 M65.678 369.900 L 65.800 371.800 67.900 371.921 L 70.000 372.042 70.000 370.021 L 70.000 368.000 67.778 368.000 L 65.556 368.000 65.678 369.900 M170.000 370.019 L 170.000 372.038 171.899 371.918 L 173.798 371.798 173.918 369.899 L 174.038 368.000 172.019 368.000 L 170.000 368.000 170.000 370.019 M76.877 373.700 L 77.000 375.400 79.100 375.521 L 81.200 375.642 81.200 373.821 L 81.200 372.000 78.977 372.000 L 76.754 372.000 76.877 373.700 M155.153 372.882 C 155.127 373.387,155.149 373.980,155.204 374.200 C 155.258 374.420,155.309 374.825,155.318 375.100 C 155.328 375.417,155.940 375.600,156.992 375.600 L 158.651 375.600 158.740 373.875 L 158.829 372.151 157.015 372.057 C 155.373 371.972,155.195 372.051,155.153 372.882 M95.600 376.800 C 95.600 377.460,95.802 378.000,96.049 378.000 C 96.375 378.000,96.372 378.152,96.037 378.556 C 95.649 379.023,96.269 379.121,99.962 379.171 L 104.349 379.231 104.290 377.416 L 104.231 375.600 99.915 375.600 L 95.600 375.600 95.600 376.800 M130.369 375.700 C 130.079 376.648,130.141 377.441,130.522 377.684 C 130.878 377.910,130.865 377.989,130.471 377.994 C 130.064 377.999,130.081 378.138,130.543 378.600 C 130.954 379.012,131.968 379.200,133.771 379.200 L 136.400 379.200 136.400 377.400 L 136.400 375.600 133.400 375.600 C 131.750 375.600,130.386 375.645,130.369 375.700 " stroke="none" fill="#ffffff" fill-rule="evenodd"></path><path id="path1" d="M283.694 29.765 C 283.924 30.515,284.018 31.377,283.902 31.678 C 283.337 33.151,276.327 35.200,271.852 35.200 C 270.155 35.200,269.419 35.450,267.698 36.608 C 263.670 39.321,256.400 39.561,256.400 36.982 C 256.400 36.222,256.260 35.600,256.089 35.600 C 255.919 35.600,255.848 36.322,255.932 37.204 C 256.274 40.794,255.156 41.813,250.386 42.256 C 247.884 42.488,247.324 42.694,246.080 43.833 C 244.665 45.130,242.292 45.995,240.123 46.005 C 238.454 46.014,237.200 46.430,237.200 46.977 C 237.200 48.073,235.284 49.187,232.253 49.853 C 229.750 50.403,229.035 50.725,228.704 51.451 C 228.194 52.569,226.264 53.524,223.843 53.856 C 222.543 54.034,221.951 54.323,221.780 54.864 C 221.463 55.862,220.158 56.647,218.264 56.980 C 216.213 57.340,214.800 58.015,214.800 58.635 C 214.800 59.433,212.800 60.800,211.634 60.800 C 210.914 60.800,209.924 61.421,208.541 62.740 C 207.025 64.186,206.084 64.748,204.853 64.945 C 203.898 65.098,203.200 65.429,203.200 65.730 C 203.200 66.504,201.157 68.260,199.916 68.552 C 199.319 68.693,198.239 69.411,197.516 70.149 C 196.116 71.578,194.042 72.800,193.020 72.800 C 192.679 72.800,192.400 73.039,192.400 73.330 C 192.400 74.097,190.776 75.497,189.529 75.806 C 188.902 75.962,188.026 76.725,187.415 77.649 C 186.725 78.692,185.977 79.305,185.206 79.459 C 184.493 79.601,183.683 80.214,183.120 81.038 C 182.614 81.778,181.700 82.591,181.090 82.845 C 180.479 83.098,179.198 84.175,178.242 85.237 C 177.287 86.300,176.027 87.387,175.443 87.653 C 174.859 87.919,174.017 88.725,173.573 89.443 C 173.119 90.179,172.206 90.938,171.483 91.182 C 170.655 91.462,169.987 92.074,169.600 92.908 C 169.262 93.635,168.435 94.462,167.708 94.800 C 166.883 95.183,166.262 95.856,165.990 96.659 C 165.721 97.455,165.133 98.096,164.387 98.405 C 163.704 98.688,162.828 99.582,162.304 100.532 C 161.665 101.689,161.018 102.280,160.100 102.543 C 159.134 102.820,158.800 103.145,158.800 103.807 C 158.800 104.741,156.108 108.000,155.337 108.000 C 154.903 108.000,153.600 110.332,153.600 111.109 C 153.600 111.322,152.985 111.918,152.233 112.434 C 151.442 112.975,150.775 113.824,150.651 114.447 C 150.513 115.135,149.817 115.939,148.719 116.676 C 147.515 117.485,146.942 118.182,146.798 119.014 C 146.650 119.871,146.178 120.422,145.098 121.000 C 144.113 121.526,143.602 122.082,143.601 122.625 C 143.599 123.997,142.129 126.596,141.018 127.190 C 140.300 127.574,139.839 128.284,139.543 129.461 C 139.224 130.729,138.775 131.372,137.813 131.939 C 136.733 132.576,136.394 133.150,135.800 135.345 C 135.203 137.552,134.896 138.067,133.927 138.492 C 133.235 138.796,132.680 139.402,132.548 140.000 C 131.828 143.269,130.509 145.600,129.379 145.600 C 128.828 145.600,128.693 145.972,128.224 148.762 C 128.098 149.511,127.399 150.861,126.670 151.762 C 125.942 152.663,125.058 154.428,124.707 155.685 C 124.281 157.208,123.591 158.461,122.634 159.446 C 121.708 160.400,121.200 161.305,121.200 162.002 C 121.200 162.595,121.035 163.602,120.833 164.240 C 120.631 164.878,120.361 165.881,120.233 166.469 C 120.105 167.057,119.443 168.096,118.761 168.777 C 117.721 169.818,117.487 170.414,117.298 172.508 C 117.018 175.607,116.330 177.299,114.794 178.669 C 113.798 179.556,113.600 180.037,113.598 181.566 C 113.593 185.162,112.891 187.927,111.421 190.142 C 110.442 191.617,110.000 192.738,110.000 193.746 C 110.000 198.525,108.631 203.664,106.810 205.715 C 105.865 206.781,105.826 207.031,105.937 211.315 C 106.010 214.093,105.820 217.124,105.440 219.280 C 104.602 224.024,104.434 224.617,103.346 226.663 C 102.519 228.219,102.400 228.987,102.400 232.788 C 102.400 239.238,102.554 239.406,105.705 236.404 C 107.006 235.164,108.305 234.311,109.132 234.153 C 109.864 234.013,110.567 233.607,110.693 233.249 C 111.122 232.030,112.126 231.197,113.665 230.783 C 114.858 230.461,115.330 230.064,115.771 229.008 C 116.233 227.902,116.625 227.594,117.870 227.362 C 118.969 227.158,119.823 226.598,120.901 225.376 C 121.855 224.295,123.020 223.479,124.097 223.138 C 125.235 222.777,125.841 222.337,125.937 221.800 C 126.017 221.360,126.521 220.417,127.057 219.705 C 127.912 218.570,127.985 218.223,127.643 216.905 C 127.402 215.975,127.297 204.568,127.368 187.063 L 127.482 158.727 129.087 157.216 C 132.163 154.318,139.086 154.609,139.928 157.672 L 140.293 159.000 140.584 157.921 C 141.214 155.592,141.554 155.541,156.617 155.503 L 170.368 155.468 170.784 154.274 C 171.049 153.512,171.205 145.974,171.213 133.440 C 171.227 111.105,170.952 112.767,174.838 111.557 C 178.645 110.373,259.257 110.405,261.584 111.592 C 263.847 112.746,263.885 112.997,263.928 127.200 C 263.973 141.988,263.746 145.457,262.746 145.293 C 262.386 145.234,261.979 145.479,261.841 145.837 C 261.638 146.366,261.779 146.442,262.587 146.239 C 263.414 146.031,263.625 146.159,263.834 146.995 C 264.133 148.184,268.607 148.568,269.040 147.441 C 269.516 146.199,274.786 144.400,277.951 144.400 C 279.059 144.400,279.913 144.064,280.999 143.201 C 282.821 141.752,284.325 141.326,288.860 140.969 C 291.683 140.747,292.502 140.527,293.310 139.779 C 294.755 138.438,298.007 137.577,303.022 137.206 C 307.072 136.906,307.604 136.770,309.356 135.588 C 311.420 134.195,316.658 133.242,322.406 133.213 C 324.272 133.204,325.458 132.961,326.584 132.357 C 329.956 130.550,334.041 130.003,348.200 129.463 C 350.579 129.372,352.587 129.038,354.122 128.476 C 357.366 127.289,363.809 126.408,369.651 126.353 C 372.373 126.328,375.745 126.193,377.145 126.053 L 379.689 125.800 380.572 122.275 C 381.226 119.664,381.722 118.521,382.483 117.867 C 384.039 116.530,384.629 104.752,384.191 83.800 C 384.012 75.220,383.850 66.850,383.832 65.200 L 383.800 62.200 385.300 62.076 C 386.408 61.984,386.792 61.775,386.768 61.276 C 386.749 60.859,386.659 60.792,386.535 61.100 C 386.174 61.995,383.220 61.711,382.382 60.700 C 381.374 59.485,379.998 51.918,379.999 47.600 C 380.000 46.479,379.721 45.977,378.600 45.083 C 377.830 44.469,377.200 43.711,377.200 43.398 C 377.200 43.069,376.486 42.639,375.500 42.373 C 374.540 42.115,373.064 41.238,372.109 40.358 C 371.055 39.387,370.029 38.800,369.386 38.800 C 367.319 38.800,364.747 37.871,363.488 36.669 C 362.496 35.721,361.695 35.378,360.000 35.172 C 354.446 34.497,350.819 33.089,350.797 31.600 C 350.776 30.182,350.174 29.889,348.770 30.616 C 347.560 31.241,346.649 31.273,339.216 30.953 C 328.611 30.497,309.122 30.502,297.301 30.963 C 287.258 31.355,286.400 31.211,286.400 29.138 C 286.400 28.547,286.090 28.400,284.837 28.400 L 283.275 28.400 283.694 29.765 M260.074 132.729 C 260.009 146.165,260.072 147.985,260.584 147.473 C 260.905 147.152,261.259 145.924,261.371 144.745 C 261.489 143.492,261.441 142.924,261.254 143.379 C 260.413 145.427,259.960 126.576,260.767 123.100 C 260.959 122.275,260.964 121.600,260.779 121.600 C 260.593 121.600,260.376 120.655,260.295 119.500 C 260.214 118.345,260.115 124.298,260.074 132.729 M260.909 126.000 C 260.909 126.990,260.987 127.395,261.082 126.900 C 261.178 126.405,261.178 125.595,261.082 125.100 C 260.987 124.605,260.909 125.010,260.909 126.000 M260.909 132.000 C 260.909 132.990,260.987 133.395,261.082 132.900 C 261.178 132.405,261.178 131.595,261.082 131.100 C 260.987 130.605,260.909 131.010,260.909 132.000 M353.700 132.676 C 354.085 132.776,354.715 132.776,355.100 132.676 C 355.485 132.575,355.170 132.493,354.400 132.493 C 353.630 132.493,353.315 132.575,353.700 132.676 M330.278 165.178 C 329.881 165.580,329.041 166.012,328.410 166.138 C 327.706 166.279,326.988 166.835,326.548 167.580 C 326.142 168.267,325.266 168.980,324.528 169.224 C 323.811 169.460,322.682 170.339,322.019 171.176 C 321.275 172.115,320.348 172.790,319.596 172.941 C 318.881 173.084,317.548 174.014,316.370 175.192 C 315.067 176.495,314.022 177.200,313.395 177.200 C 312.804 177.200,312.242 177.547,311.951 178.092 C 311.259 179.384,310.576 179.980,309.261 180.439 C 307.607 181.015,307.621 180.716,307.621 213.899 C 307.621 245.079,307.664 244.346,305.741 246.064 C 304.118 247.514,301.981 247.662,283.371 247.616 C 273.406 247.592,264.796 247.686,264.237 247.826 L 263.221 248.081 263.111 268.222 L 263.000 288.362 261.410 289.990 L 259.821 291.617 216.889 291.509 L 173.958 291.400 172.623 289.855 C 170.883 287.842,170.893 287.958,170.999 270.813 C 171.100 254.414,171.013 253.726,168.959 254.590 C 168.286 254.873,166.226 255.238,164.383 255.402 C 161.510 255.656,160.820 255.867,159.558 256.882 C 157.830 258.271,156.199 258.744,151.689 259.164 C 149.003 259.414,148.220 259.643,147.533 260.380 C 146.245 261.762,144.561 262.299,139.983 262.789 C 135.191 263.302,134.574 263.448,133.200 264.393 C 130.225 266.438,119.271 267.732,118.130 266.172 C 117.607 265.457,117.585 265.469,117.725 266.388 C 118.079 268.707,112.939 270.153,102.800 270.588 C 98.725 270.763,97.007 271.004,95.800 271.570 C 91.815 273.437,82.742 274.369,68.350 274.389 C 58.460 274.402,57.853 274.496,56.816 276.175 C 55.925 277.616,54.287 278.636,53.039 278.526 C 52.346 278.465,52.329 278.489,52.944 278.664 C 54.056 278.980,53.704 286.138,52.435 289.000 C 50.692 292.931,50.812 292.800,48.959 292.800 C 47.405 292.800,47.238 292.702,47.087 291.700 C 46.995 291.095,46.893 292.175,46.860 294.100 C 46.827 296.025,46.945 297.600,47.123 297.600 C 48.998 297.600,49.906 313.793,48.239 317.506 C 47.821 318.438,47.326 319.200,47.139 319.200 C 46.953 319.200,46.829 322.125,46.864 325.700 C 46.899 329.275,47.001 331.615,47.089 330.900 C 47.220 329.847,47.430 329.600,48.193 329.600 C 48.711 329.600,49.398 329.499,49.720 329.376 C 51.413 328.726,53.170 334.845,53.489 342.503 C 53.736 348.403,53.407 349.600,51.538 349.600 C 51.132 349.600,50.800 349.826,50.800 350.103 C 50.800 350.452,51.339 350.563,52.563 350.466 C 54.821 350.286,55.689 351.106,56.583 354.260 C 56.947 355.547,57.330 356.894,57.434 357.252 C 57.539 357.611,58.160 358.012,58.816 358.143 C 59.608 358.302,60.173 358.754,60.496 359.491 C 61.079 360.817,61.533 361.185,62.600 361.196 C 64.378 361.215,66.586 362.142,67.908 363.426 C 68.678 364.174,69.866 364.869,70.553 364.973 C 71.239 365.077,72.520 365.273,73.400 365.407 C 75.339 365.703,78.253 367.040,78.529 367.760 C 78.647 368.066,79.698 368.380,81.065 368.517 C 86.094 369.022,90.237 369.632,91.000 369.980 C 91.440 370.181,92.625 370.454,93.633 370.587 C 94.641 370.720,96.125 371.182,96.931 371.614 C 98.325 372.361,99.271 372.400,116.218 372.400 C 135.731 372.400,136.400 372.473,136.400 374.610 C 136.400 375.512,136.551 375.598,138.100 375.575 C 139.523 375.553,139.653 375.490,138.900 375.188 C 137.984 374.819,137.625 372.757,138.306 371.778 C 139.012 370.763,143.593 369.610,148.607 369.183 C 157.241 368.449,158.627 368.230,159.377 367.480 C 160.629 366.228,162.890 365.575,167.110 365.245 C 170.456 364.984,171.451 364.756,172.323 364.050 C 173.992 362.698,175.755 362.025,179.193 361.425 C 181.524 361.018,182.645 360.606,183.450 359.859 C 184.527 358.860,185.604 358.526,190.871 357.556 C 192.810 357.200,193.592 356.873,193.725 356.367 C 193.981 355.386,196.075 354.401,198.520 354.111 C 200.069 353.928,200.886 353.575,201.741 352.721 C 203.258 351.204,204.806 350.439,206.954 350.144 C 208.239 349.968,208.939 349.609,209.514 348.830 C 210.238 347.852,211.747 347.175,214.400 346.637 C 214.950 346.525,216.154 345.731,217.076 344.871 C 218.128 343.889,219.434 343.135,220.584 342.846 C 221.800 342.540,222.951 341.849,224.008 340.792 C 225.160 339.640,225.933 339.200,226.807 339.200 C 227.709 339.200,228.440 338.757,229.707 337.442 C 230.717 336.393,232.004 335.519,232.895 335.275 C 233.718 335.051,234.999 334.222,235.742 333.434 C 236.576 332.550,237.469 332.000,238.070 332.000 C 238.740 332.000,239.417 331.506,240.223 330.430 C 241.525 328.694,243.105 327.600,244.313 327.600 C 244.816 327.600,245.286 327.158,245.606 326.385 C 245.943 325.571,246.678 324.911,247.832 324.385 C 248.779 323.954,249.869 323.068,250.253 322.417 C 250.638 321.766,251.464 321.022,252.090 320.763 C 252.715 320.504,253.595 319.821,254.046 319.246 C 254.496 318.671,255.371 317.930,255.990 317.600 C 256.609 317.270,257.962 316.054,258.997 314.898 C 260.031 313.742,261.303 312.689,261.823 312.559 C 262.342 312.428,263.131 311.705,263.575 310.952 C 264.019 310.199,265.015 309.210,265.787 308.754 C 266.560 308.299,267.419 307.456,267.696 306.881 C 267.973 306.306,268.844 305.497,269.632 305.083 C 270.514 304.620,271.246 303.844,271.536 303.065 C 271.817 302.313,272.655 301.402,273.604 300.820 C 274.482 300.280,275.200 299.634,275.200 299.382 C 275.200 299.131,276.280 297.818,277.600 296.465 C 278.920 295.112,280.000 293.765,280.000 293.472 C 280.000 292.861,281.650 291.200,282.257 291.200 C 282.480 291.200,283.009 290.445,283.432 289.523 C 283.869 288.568,284.712 287.566,285.389 287.197 C 286.205 286.751,286.665 286.122,286.855 285.193 C 287.152 283.743,288.105 282.800,289.276 282.800 C 289.719 282.800,290.000 282.507,290.000 282.046 C 290.000 280.955,292.244 277.098,293.308 276.359 C 293.499 276.227,294.081 275.198,294.603 274.073 C 295.283 272.605,295.839 271.955,296.575 271.770 C 297.254 271.600,297.600 271.239,297.600 270.700 C 297.600 269.427,299.290 266.360,300.474 265.483 C 301.175 264.964,301.638 264.160,301.805 263.169 C 302.048 261.730,303.137 260.000,303.800 260.000 C 304.579 260.000,305.510 258.214,305.728 256.304 C 305.927 254.558,306.203 253.994,307.349 252.987 C 308.319 252.136,308.809 251.302,308.992 250.187 C 309.431 247.522,310.402 245.678,311.584 245.266 C 312.570 244.922,312.702 244.624,313.087 241.881 C 313.462 239.213,313.672 238.716,314.955 237.470 C 316.113 236.345,316.402 235.762,316.410 234.533 C 316.423 232.426,317.816 228.440,318.967 227.213 C 319.616 226.522,320.005 225.501,320.191 224.000 C 320.562 221.002,321.869 217.368,322.973 216.263 C 323.733 215.503,323.933 214.741,324.171 211.691 C 324.463 207.967,325.466 204.454,326.593 203.208 C 327.357 202.363,327.868 199.606,328.351 193.720 C 328.658 189.968,328.917 188.842,329.941 186.792 C 331.689 183.293,332.693 164.081,331.110 164.424 C 331.049 164.437,330.675 164.776,330.278 165.178 M116.875 263.871 C 117.247 263.969,117.631 264.353,117.729 264.725 C 117.855 265.203,117.921 265.138,117.954 264.500 C 117.989 263.807,117.793 263.611,117.100 263.646 C 116.462 263.679,116.397 263.745,116.875 263.871 " stroke="none" fill="#630510" fill-rule="evenodd"></path><path id="path2" d="M307.200 24.800 C 307.200 25.020,307.359 25.200,307.553 25.200 C 307.747 25.200,307.915 25.895,307.927 26.745 L 307.948 28.289 303.486 28.572 C 301.032 28.727,298.162 29.018,297.108 29.217 C 293.457 29.910,288.623 29.838,287.458 29.074 C 286.444 28.411,286.400 28.413,286.400 29.129 C 286.400 31.212,287.249 31.355,297.301 30.963 C 309.122 30.502,328.611 30.497,339.216 30.953 C 346.649 31.273,347.560 31.241,348.770 30.616 C 350.174 29.889,350.776 30.182,350.797 31.600 C 350.819 33.089,354.446 34.497,360.000 35.172 C 361.695 35.378,362.496 35.721,363.488 36.669 C 364.747 37.871,367.319 38.800,369.386 38.800 C 370.029 38.800,371.055 39.387,372.109 40.358 C 373.064 41.238,374.540 42.115,375.500 42.373 C 376.486 42.639,377.200 43.069,377.200 43.398 C 377.200 43.711,377.830 44.469,378.600 45.083 C 379.721 45.977,380.000 46.479,379.999 47.600 C 379.998 51.918,381.374 59.485,382.382 60.700 C 383.301 61.808,386.164 61.991,386.557 60.967 C 387.383 58.816,386.810 54.400,385.700 54.357 C 383.049 54.255,383.116 54.311,382.357 51.600 C 381.325 47.917,381.345 44.165,382.400 43.600 C 382.995 43.282,383.200 42.762,383.200 41.573 C 383.200 39.541,382.753 39.367,378.757 39.840 C 376.538 40.103,375.451 40.080,375.015 39.761 C 374.262 39.211,374.172 36.158,374.900 35.865 C 375.175 35.754,374.556 35.649,373.524 35.632 C 372.492 35.614,371.551 35.756,371.433 35.946 C 371.003 36.642,368.256 36.798,367.313 36.180 C 366.296 35.514,366.040 33.320,366.880 32.480 C 367.629 31.731,364.981 31.863,363.805 32.633 C 361.057 34.434,356.400 32.917,356.400 30.220 L 356.400 28.400 353.180 28.400 C 351.005 28.400,349.557 28.609,348.717 29.043 C 347.324 29.763,343.109 29.852,340.288 29.220 C 339.348 29.009,336.649 28.712,334.290 28.560 L 330.000 28.282 330.000 26.570 C 330.000 25.277,330.171 24.814,330.700 24.676 C 331.085 24.575,325.955 24.472,319.300 24.446 C 311.469 24.416,307.200 24.541,307.200 24.800 M277.522 30.284 C 277.402 32.141,277.373 32.177,275.600 32.707 C 273.023 33.478,269.641 33.459,268.200 32.666 C 267.540 32.302,266.154 32.004,265.121 32.002 L 263.242 32.000 263.121 34.062 C 262.966 36.699,261.114 37.661,258.100 36.669 L 256.400 36.110 256.400 37.237 C 256.400 39.569,263.924 39.150,267.698 36.608 C 269.400 35.462,270.163 35.200,271.795 35.200 C 276.855 35.201,283.656 33.022,283.918 31.316 C 284.257 29.114,283.404 28.400,280.432 28.400 L 277.644 28.400 277.522 30.284 M252.170 35.952 C 253.917 38.778,249.197 42.027,246.000 40.200 C 243.645 38.854,241.974 39.847,242.573 42.235 C 242.964 43.793,236.185 44.751,234.061 43.437 C 233.736 43.237,233.600 43.757,233.600 45.197 C 233.600 47.151,233.539 47.266,232.213 47.820 C 230.048 48.725,226.777 48.598,226.516 47.600 C 226.140 46.163,225.800 46.756,225.800 48.849 C 225.800 51.986,219.907 54.222,218.812 51.500 C 218.518 50.767,218.446 50.949,218.425 52.481 C 218.399 54.455,217.352 55.190,214.562 55.198 C 213.605 55.200,212.400 56.363,212.400 57.283 C 212.400 58.389,211.309 58.926,209.697 58.614 C 205.581 57.818,206.000 57.670,206.000 59.926 C 206.000 62.406,204.809 63.600,202.336 63.600 C 200.935 63.600,200.757 63.717,200.545 64.773 L 200.311 65.946 197.598 65.719 L 194.886 65.491 195.088 67.287 C 195.312 69.269,193.903 71.186,192.204 71.213 C 191.276 71.227,190.390 71.879,189.759 73.009 C 189.425 73.607,188.814 73.830,187.259 73.921 C 185.202 74.042,185.200 74.043,185.200 75.421 C 185.200 76.748,185.143 76.800,183.700 76.800 C 182.231 76.800,182.200 76.769,182.214 75.300 C 182.228 73.865,182.283 73.804,183.492 73.898 C 184.186 73.953,184.848 73.847,184.961 73.663 C 185.075 73.479,184.359 73.298,183.370 73.260 C 181.581 73.193,181.573 73.199,181.642 74.496 C 181.758 76.676,181.677 76.798,180.100 76.832 C 179.275 76.849,178.825 76.954,179.100 77.065 C 180.211 77.513,179.678 80.276,178.251 81.471 C 177.509 82.092,176.604 83.186,176.240 83.902 C 175.875 84.618,174.876 85.647,174.020 86.187 C 173.163 86.728,172.135 87.725,171.735 88.402 C 171.335 89.079,170.609 89.733,170.120 89.856 C 169.632 89.978,168.872 90.689,168.432 91.436 C 167.992 92.182,167.066 93.136,166.376 93.556 C 165.685 93.976,164.769 94.897,164.340 95.603 C 163.911 96.308,163.203 96.979,162.768 97.093 C 162.332 97.207,161.519 98.079,160.960 99.032 C 160.402 99.984,159.586 100.877,159.148 101.017 C 158.709 101.156,157.805 102.154,157.140 103.235 C 155.933 105.198,155.929 105.200,153.766 105.200 C 151.867 105.200,151.600 105.299,151.600 106.000 C 151.600 106.681,151.333 106.800,149.800 106.800 L 148.000 106.800 148.017 108.900 C 148.027 110.055,148.183 111.765,148.364 112.699 L 148.692 114.398 147.146 114.815 C 145.751 115.190,145.600 115.359,145.600 116.539 C 145.600 118.027,145.147 118.702,143.300 119.965 C 142.585 120.454,142.000 121.159,142.000 121.531 C 142.000 122.919,140.205 124.278,138.442 124.227 C 136.608 124.174,136.559 124.287,137.237 126.980 C 137.722 128.907,137.251 130.400,136.157 130.400 C 135.416 130.400,134.400 131.350,134.400 132.043 C 134.400 134.506,132.825 135.871,130.395 135.514 C 129.066 135.319,128.724 136.164,129.809 136.957 C 132.092 138.626,130.501 142.368,127.500 142.387 C 125.307 142.402,125.197 142.687,126.252 145.631 C 127.216 148.321,126.347 149.600,123.554 149.600 C 121.450 149.600,120.699 151.154,122.200 152.400 C 124.104 153.980,122.405 157.200,119.669 157.200 C 117.754 157.200,117.546 157.767,118.648 159.975 C 120.077 162.840,118.851 165.600,116.151 165.600 C 114.261 165.600,114.110 165.783,115.013 166.976 C 115.803 168.021,115.765 171.571,114.943 173.627 C 114.286 175.268,114.284 175.269,112.342 175.135 C 110.040 174.975,109.682 176.143,111.253 178.685 C 113.161 181.773,111.543 186.400,108.554 186.400 C 106.538 186.400,106.297 187.097,107.400 189.738 C 109.123 193.863,107.834 199.346,105.100 199.522 L 103.200 199.644 103.217 202.522 C 103.227 204.105,103.423 206.210,103.653 207.200 C 104.462 210.680,104.490 212.395,103.782 215.012 L 103.081 217.600 101.141 217.600 L 99.200 217.600 99.218 221.700 C 99.229 224.373,99.448 226.357,99.846 227.400 C 100.212 228.358,100.546 231.006,100.679 234.000 C 100.813 237.022,101.119 239.427,101.451 240.080 C 101.753 240.674,102.000 241.989,102.000 243.001 L 102.000 244.842 104.100 244.721 L 106.200 244.600 106.323 242.900 C 106.422 241.526,106.595 241.200,107.223 241.200 C 107.885 241.200,108.000 240.914,108.000 239.262 C 108.000 237.108,108.487 236.456,110.818 235.494 C 111.598 235.173,112.547 234.435,112.927 233.855 C 113.628 232.786,117.600 232.205,117.600 233.171 C 117.600 234.334,121.401 233.384,121.487 232.200 C 121.535 231.540,121.461 231.267,121.323 231.593 C 121.027 232.290,120.166 233.200,119.803 233.200 C 119.663 233.200,120.055 232.484,120.674 231.609 C 121.293 230.733,122.115 230.013,122.500 230.009 C 123.069 230.002,123.200 229.638,123.200 228.062 C 123.200 225.835,123.969 224.868,126.084 224.438 C 127.097 224.232,127.566 223.820,128.121 222.648 C 128.829 221.151,128.874 221.128,130.821 221.263 L 132.800 221.400 132.800 191.920 C 132.800 166.565,132.719 162.394,132.219 162.115 C 131.900 161.936,131.355 161.112,131.010 160.285 C 129.702 157.155,132.946 156.017,138.044 157.816 C 139.955 158.490,140.184 158.409,139.798 157.194 C 138.972 154.590,131.858 154.605,129.087 157.216 L 127.482 158.727 127.368 187.063 C 127.297 204.568,127.402 215.975,127.643 216.905 C 127.985 218.223,127.912 218.570,127.057 219.705 C 126.521 220.417,126.017 221.360,125.937 221.800 C 125.841 222.337,125.235 222.777,124.097 223.138 C 123.020 223.479,121.855 224.295,120.901 225.376 C 119.823 226.598,118.969 227.158,117.870 227.362 C 116.625 227.594,116.233 227.902,115.771 229.008 C 115.330 230.064,114.858 230.461,113.665 230.783 C 112.126 231.197,111.122 232.030,110.693 233.249 C 110.567 233.607,109.864 234.013,109.132 234.153 C 108.305 234.311,107.006 235.164,105.705 236.404 C 102.554 239.406,102.400 239.238,102.400 232.788 C 102.400 228.987,102.519 228.219,103.346 226.663 C 104.434 224.617,104.602 224.024,105.440 219.280 C 105.820 217.124,106.010 214.093,105.937 211.315 C 105.826 207.031,105.865 206.781,106.810 205.715 C 108.631 203.664,110.000 198.525,110.000 193.746 C 110.000 192.738,110.442 191.617,111.421 190.142 C 112.891 187.927,113.593 185.162,113.598 181.566 C 113.600 180.037,113.798 179.556,114.794 178.669 C 116.330 177.299,117.018 175.607,117.298 172.508 C 117.487 170.414,117.721 169.818,118.761 168.777 C 119.443 168.096,120.105 167.057,120.233 166.469 C 120.361 165.881,120.631 164.878,120.833 164.240 C 121.035 163.602,121.200 162.595,121.200 162.002 C 121.200 161.305,121.708 160.400,122.634 159.446 C 123.591 158.461,124.281 157.208,124.707 155.685 C 125.058 154.428,125.942 152.663,126.670 151.762 C 127.399 150.861,128.098 149.511,128.224 148.762 C 128.693 145.972,128.828 145.600,129.379 145.600 C 130.509 145.600,131.828 143.269,132.548 140.000 C 132.680 139.402,133.235 138.796,133.927 138.492 C 134.896 138.067,135.203 137.552,135.800 135.345 C 136.394 133.150,136.733 132.576,137.813 131.939 C 138.775 131.372,139.224 130.729,139.543 129.461 C 139.839 128.284,140.300 127.574,141.018 127.190 C 142.129 126.596,143.599 123.997,143.601 122.625 C 143.602 122.082,144.113 121.526,145.098 121.000 C 146.178 120.422,146.650 119.871,146.798 119.014 C 146.942 118.182,147.515 117.485,148.719 116.676 C 149.817 115.939,150.513 115.135,150.651 114.447 C 150.775 113.824,151.442 112.975,152.233 112.434 C 152.985 111.918,153.600 111.322,153.600 111.109 C 153.600 110.332,154.903 108.000,155.337 108.000 C 156.108 108.000,158.800 104.741,158.800 103.807 C 158.800 103.145,159.134 102.820,160.100 102.543 C 161.018 102.280,161.665 101.689,162.304 100.532 C 162.828 99.582,163.704 98.688,164.387 98.405 C 165.133 98.096,165.721 97.455,165.990 96.659 C 166.262 95.856,166.883 95.183,167.708 94.800 C 168.435 94.462,169.262 93.635,169.600 92.908 C 169.987 92.074,170.655 91.462,171.483 91.182 C 172.206 90.938,173.119 90.179,173.573 89.443 C 174.017 88.725,174.859 87.919,175.443 87.653 C 176.027 87.387,177.287 86.300,178.242 85.237 C 179.198 84.175,180.479 83.098,181.090 82.845 C 181.700 82.591,182.614 81.778,183.120 81.038 C 183.683 80.214,184.493 79.601,185.206 79.459 C 185.977 79.305,186.725 78.692,187.415 77.649 C 188.026 76.725,188.902 75.962,189.529 75.806 C 190.776 75.497,192.400 74.097,192.400 73.330 C 192.400 73.039,192.679 72.800,193.020 72.800 C 194.042 72.800,196.116 71.578,197.516 70.149 C 198.239 69.411,199.319 68.693,199.916 68.552 C 201.157 68.260,203.200 66.504,203.200 65.730 C 203.200 65.429,203.898 65.098,204.853 64.945 C 206.084 64.748,207.025 64.186,208.541 62.740 C 209.924 61.421,210.914 60.800,211.634 60.800 C 212.800 60.800,214.800 59.433,214.800 58.635 C 214.800 58.015,216.213 57.340,218.264 56.980 C 220.158 56.647,221.463 55.862,221.780 54.864 C 221.951 54.323,222.543 54.034,223.843 53.856 C 226.264 53.524,228.194 52.569,228.704 51.451 C 229.035 50.725,229.750 50.403,232.253 49.853 C 235.284 49.187,237.200 48.073,237.200 46.977 C 237.200 46.430,238.454 46.014,240.123 46.005 C 242.292 45.995,244.665 45.130,246.080 43.833 C 247.324 42.694,247.884 42.488,250.386 42.256 C 255.123 41.816,256.214 40.852,255.928 37.362 L 255.800 35.800 253.862 35.677 C 252.646 35.599,252.016 35.702,252.170 35.952 M383.764 62.550 C 383.648 62.852,383.743 67.305,383.976 72.444 C 384.974 94.452,384.250 116.348,382.474 117.874 C 381.723 118.520,381.223 119.676,380.572 122.275 L 379.689 125.800 377.145 126.053 C 375.745 126.193,372.373 126.328,369.651 126.353 C 363.809 126.408,357.366 127.289,354.122 128.476 C 352.587 129.038,350.579 129.372,348.200 129.463 C 334.041 130.003,329.956 130.550,326.584 132.357 C 325.458 132.961,324.272 133.204,322.406 133.213 C 316.658 133.242,311.420 134.195,309.356 135.588 C 307.604 136.770,307.072 136.906,303.022 137.206 C 298.007 137.577,294.755 138.438,293.310 139.779 C 292.502 140.527,291.683 140.747,288.860 140.969 C 284.325 141.326,282.821 141.752,280.999 143.201 C 279.913 144.064,279.059 144.400,277.951 144.400 C 274.786 144.400,269.516 146.199,269.040 147.441 C 268.607 148.568,264.133 148.184,263.834 146.995 C 263.625 146.159,263.414 146.031,262.587 146.239 C 261.779 146.442,261.638 146.366,261.841 145.837 C 261.979 145.479,262.386 145.234,262.746 145.293 C 263.746 145.457,263.973 141.988,263.928 127.200 C 263.885 112.997,263.847 112.746,261.584 111.592 C 259.257 110.405,178.645 110.373,174.838 111.557 C 170.952 112.767,171.227 111.105,171.213 133.440 C 171.204 146.308,171.053 153.503,170.773 154.307 L 170.345 155.533 160.273 155.520 C 141.099 155.495,141.344 155.466,140.622 157.880 C 140.362 158.749,140.375 158.751,141.679 158.101 C 142.549 157.666,144.292 157.400,146.799 157.317 C 148.890 157.249,151.050 157.168,151.600 157.137 C 152.150 157.107,153.471 157.225,154.534 157.400 C 155.749 157.600,157.715 157.524,159.816 157.197 C 162.742 156.742,163.688 156.763,167.326 157.360 C 173.111 158.309,173.978 157.969,173.995 154.747 C 174.002 153.312,175.722 152.935,176.831 154.125 C 177.591 154.941,177.600 154.722,177.600 136.252 C 177.600 118.782,177.405 115.534,176.582 119.282 C 176.320 120.477,176.269 120.509,175.751 119.801 C 175.212 119.064,175.200 119.064,175.200 119.813 C 175.200 120.508,175.142 120.496,174.567 119.674 C 173.946 118.788,174.014 117.964,175.021 114.144 C 175.482 112.394,175.355 112.399,218.761 112.409 C 265.144 112.419,262.522 112.242,261.230 115.275 C 260.544 116.886,260.167 121.600,260.724 121.600 C 260.972 121.600,260.988 122.150,260.767 123.100 C 259.960 126.576,260.413 145.427,261.254 143.379 C 261.441 142.924,261.489 143.492,261.371 144.745 C 261.259 145.924,260.905 147.152,260.584 147.473 C 260.263 147.794,260.000 148.502,260.000 149.045 L 260.000 150.033 264.753 149.917 C 268.824 149.817,269.619 149.901,270.285 150.500 C 271.935 151.985,273.552 151.439,273.417 149.442 C 273.286 147.492,273.477 147.321,276.863 146.355 C 278.919 145.769,279.325 145.812,281.312 146.827 C 284.115 148.259,285.432 147.929,285.266 145.837 C 285.031 142.884,288.209 141.910,293.926 143.184 C 299.407 144.404,299.400 144.406,299.400 141.944 C 299.400 139.903,299.414 139.881,301.000 139.323 C 303.272 138.525,306.078 138.529,307.226 139.333 C 307.928 139.825,309.046 140.000,311.489 140.000 L 314.800 140.000 314.800 138.190 C 314.800 136.112,315.129 135.885,318.800 135.422 C 320.010 135.269,321.574 134.967,322.276 134.749 C 323.337 134.420,323.916 134.526,325.715 135.377 C 327.641 136.288,328.353 136.397,332.239 136.368 C 334.637 136.351,336.375 136.246,336.100 136.135 C 335.184 135.766,335.488 132.992,336.500 132.482 C 339.112 131.166,348.998 130.881,351.805 132.041 C 353.094 132.574,374.000 133.114,374.000 132.614 C 374.000 132.465,373.759 132.102,373.464 131.807 C 371.847 130.190,373.092 128.892,376.540 128.600 C 380.174 128.293,381.600 127.635,381.600 126.266 C 381.600 123.873,383.097 122.000,385.009 122.000 L 386.800 122.000 386.800 120.012 C 386.800 118.764,386.484 117.418,385.951 116.395 C 385.012 114.595,385.041 113.769,386.283 106.934 L 386.948 103.269 388.664 103.132 C 389.934 103.031,390.422 103.152,390.543 103.598 C 390.633 103.929,390.707 98.350,390.707 91.200 C 390.707 84.050,390.625 78.515,390.524 78.900 C 390.386 79.430,389.923 79.600,388.622 79.600 L 386.903 79.600 386.432 76.300 C 385.232 67.908,385.074 64.936,385.755 63.570 C 386.578 61.920,386.607 62.000,385.187 62.000 C 384.521 62.000,383.880 62.247,383.764 62.550 M261.082 126.900 C 260.987 127.395,260.909 126.990,260.909 126.000 C 260.909 125.010,260.987 124.605,261.082 125.100 C 261.178 125.595,261.178 126.405,261.082 126.900 M261.082 132.900 C 260.987 133.395,260.909 132.990,260.909 132.000 C 260.909 131.010,260.987 130.605,261.082 131.100 C 261.178 131.595,261.178 132.405,261.082 132.900 M176.881 158.018 C 176.572 158.513,176.546 158.800,176.809 158.800 C 177.038 158.800,177.332 158.522,177.462 158.183 C 177.822 157.245,177.433 157.134,176.881 158.018 M329.600 161.128 C 329.600 163.196,328.406 164.800,326.867 164.800 C 326.466 164.800,325.614 165.430,324.972 166.200 C 323.602 167.843,320.033 168.342,319.968 166.900 C 319.948 166.455,319.861 166.388,319.730 166.717 C 319.575 167.102,319.386 167.120,318.985 166.788 C 317.803 165.806,316.205 166.485,316.134 168.000 C 316.098 168.770,316.053 169.625,316.034 169.900 C 316.016 170.175,315.640 170.400,315.200 170.400 C 314.508 170.400,314.400 170.667,314.400 172.371 C 314.400 174.551,313.194 176.000,311.379 176.000 C 310.766 176.000,310.180 176.461,309.600 177.400 C 308.993 178.382,308.443 178.800,307.757 178.800 C 305.910 178.800,305.893 179.094,305.905 211.179 C 305.916 244.695,306.037 243.184,303.380 242.874 C 302.549 242.777,301.751 242.391,301.478 241.953 C 301.028 241.233,300.175 241.200,281.714 241.200 L 262.420 241.200 262.810 242.226 C 263.391 243.754,263.285 244.850,262.500 245.424 C 261.851 245.898,261.793 247.438,261.701 266.384 C 261.605 285.998,261.570 286.866,260.825 287.666 C 259.871 288.690,258.394 288.430,256.947 286.984 L 255.964 286.000 216.662 286.000 C 190.545 286.000,177.223 286.137,176.953 286.407 C 176.298 287.062,174.157 287.544,173.554 287.172 C 173.103 286.893,172.950 283.615,172.733 269.515 C 172.587 259.992,172.432 251.427,172.389 250.483 L 172.312 248.765 169.656 248.883 L 167.000 249.000 167.049 250.673 C 167.131 253.438,161.825 255.082,159.694 252.951 C 159.300 252.557,158.486 252.400,157.251 252.480 L 155.400 252.600 155.426 254.510 L 155.452 256.421 153.374 257.025 C 151.518 257.564,151.109 257.564,149.548 257.020 C 148.587 256.686,146.585 256.409,145.100 256.406 L 142.400 256.400 142.400 258.220 C 142.400 260.993,136.040 262.808,133.711 260.700 C 133.150 260.193,132.258 260.000,130.469 260.000 L 128.000 260.000 128.000 261.795 C 128.000 264.603,121.248 266.405,118.845 264.238 C 118.008 263.483,118.000 263.485,117.954 264.438 C 117.924 265.044,117.842 265.156,117.732 264.741 C 117.500 263.865,116.400 263.612,112.800 263.605 L 109.800 263.600 109.936 265.563 L 110.072 267.526 107.936 267.946 C 100.241 269.457,98.973 269.509,96.800 268.400 C 95.452 267.712,94.442 267.600,89.616 267.600 L 84.000 267.600 84.000 269.357 C 84.000 271.736,83.832 271.770,67.000 272.795 C 56.783 273.418,56.149 273.385,54.942 272.178 C 54.150 271.386,53.592 271.184,52.460 271.278 L 51.000 271.400 50.885 274.868 C 50.784 277.919,50.856 278.358,51.485 278.521 C 52.149 278.694,52.147 278.711,51.457 278.754 C 50.905 278.788,50.793 278.980,51.022 279.500 C 52.448 282.746,51.363 285.600,48.702 285.600 L 46.800 285.600 46.804 287.700 C 46.814 292.163,47.086 292.800,48.985 292.800 C 50.808 292.800,50.695 292.925,52.435 289.000 C 53.704 286.138,54.056 278.980,52.944 278.664 C 52.329 278.489,52.346 278.465,53.039 278.526 C 54.287 278.636,55.925 277.616,56.816 276.175 C 57.853 274.496,58.460 274.402,68.350 274.389 C 82.742 274.369,91.815 273.437,95.800 271.570 C 97.007 271.004,98.725 270.763,102.800 270.588 C 112.939 270.153,118.079 268.707,117.725 266.388 C 117.585 265.469,117.607 265.457,118.130 266.172 C 119.271 267.732,130.225 266.438,133.200 264.393 C 134.574 263.448,135.191 263.302,139.983 262.789 C 144.561 262.299,146.245 261.762,147.533 260.380 C 148.220 259.643,149.003 259.414,151.689 259.164 C 156.199 258.744,157.830 258.271,159.558 256.882 C 160.820 255.867,161.510 255.656,164.383 255.402 C 166.226 255.238,168.286 254.873,168.959 254.590 C 171.013 253.726,171.100 254.414,170.999 270.813 C 170.893 287.958,170.883 287.842,172.623 289.855 L 173.958 291.400 216.889 291.509 L 259.821 291.617 261.410 289.990 L 263.000 288.362 263.111 268.222 L 263.221 248.081 264.237 247.826 C 264.796 247.686,273.406 247.592,283.371 247.616 C 301.981 247.662,304.118 247.514,305.741 246.064 C 307.664 244.346,307.621 245.079,307.621 213.899 C 307.621 180.716,307.607 181.015,309.261 180.439 C 310.576 179.980,311.259 179.384,311.951 178.092 C 312.242 177.547,312.804 177.200,313.395 177.200 C 314.022 177.200,315.067 176.495,316.370 175.192 C 317.548 174.014,318.881 173.084,319.596 172.941 C 320.348 172.790,321.275 172.115,322.019 171.176 C 322.682 170.339,323.811 169.460,324.528 169.224 C 325.266 168.980,326.142 168.267,326.548 167.580 C 326.987 166.837,327.707 166.279,328.405 166.139 C 329.032 166.014,329.918 165.563,330.375 165.137 C 331.881 163.734,332.085 165.451,331.598 175.441 C 331.172 184.169,331.140 184.393,329.941 186.792 C 328.917 188.842,328.658 189.968,328.351 193.720 C 327.868 199.606,327.357 202.363,326.593 203.208 C 325.466 204.454,324.463 207.967,324.171 211.691 C 323.933 214.741,323.733 215.503,322.973 216.263 C 321.869 217.368,320.562 221.002,320.191 224.000 C 320.005 225.501,319.616 226.522,318.967 227.213 C 317.816 228.440,316.423 232.426,316.410 234.533 C 316.402 235.762,316.113 236.345,314.955 237.470 C 313.672 238.716,313.462 239.213,313.087 241.881 C 312.702 244.624,312.570 244.922,311.584 245.266 C 310.402 245.678,309.431 247.522,308.992 250.187 C 308.809 251.302,308.319 252.136,307.349 252.987 C 306.203 253.994,305.927 254.558,305.728 256.304 C 305.510 258.214,304.579 260.000,303.800 260.000 C 303.137 260.000,302.048 261.730,301.805 263.169 C 301.638 264.160,301.175 264.964,300.474 265.483 C 299.290 266.360,297.600 269.427,297.600 270.700 C 297.600 271.239,297.254 271.600,296.575 271.770 C 295.839 271.955,295.283 272.605,294.603 274.073 C 294.081 275.198,293.499 276.227,293.308 276.359 C 292.244 277.098,290.000 280.955,290.000 282.046 C 290.000 282.507,289.719 282.800,289.276 282.800 C 288.105 282.800,287.152 283.743,286.855 285.193 C 286.665 286.122,286.205 286.751,285.389 287.197 C 284.712 287.566,283.869 288.568,283.432 289.523 C 283.009 290.445,282.455 291.200,282.201 291.200 C 281.610 291.200,280.000 292.903,280.000 293.528 C 280.000 293.790,278.920 295.112,277.600 296.465 C 276.280 297.818,275.200 299.131,275.200 299.382 C 275.200 299.634,274.482 300.280,273.604 300.820 C 272.655 301.402,271.817 302.313,271.536 303.065 C 271.246 303.844,270.514 304.620,269.632 305.083 C 268.844 305.497,267.973 306.306,267.696 306.881 C 267.419 307.456,266.560 308.299,265.787 308.754 C 265.015 309.210,264.019 310.199,263.575 310.952 C 263.131 311.705,262.342 312.428,261.823 312.559 C 261.303 312.689,260.031 313.742,258.997 314.898 C 257.962 316.054,256.609 317.270,255.990 317.600 C 255.371 317.930,254.496 318.671,254.046 319.246 C 253.595 319.821,252.715 320.504,252.090 320.763 C 251.464 321.022,250.638 321.766,250.253 322.417 C 249.869 323.068,248.779 323.954,247.832 324.385 C 246.678 324.911,245.943 325.571,245.606 326.385 C 245.286 327.158,244.816 327.600,244.313 327.600 C 243.105 327.600,241.525 328.694,240.223 330.430 C 239.417 331.506,238.740 332.000,238.070 332.000 C 237.469 332.000,236.576 332.550,235.742 333.434 C 234.999 334.222,233.718 335.051,232.895 335.275 C 232.004 335.519,230.717 336.393,229.707 337.442 C 228.440 338.757,227.709 339.200,226.807 339.200 C 225.933 339.200,225.160 339.640,224.008 340.792 C 222.951 341.849,221.800 342.540,220.584 342.846 C 219.434 343.135,218.128 343.889,217.076 344.871 C 216.154 345.731,214.950 346.525,214.400 346.637 C 211.747 347.175,210.238 347.852,209.514 348.830 C 208.939 349.609,208.239 349.968,206.954 350.144 C 204.806 350.439,203.258 351.204,201.741 352.721 C 200.886 353.575,200.069 353.928,198.520 354.111 C 196.075 354.401,193.981 355.386,193.725 356.367 C 193.592 356.873,192.810 357.200,190.871 357.556 C 185.604 358.526,184.527 358.860,183.450 359.859 C 182.645 360.606,181.524 361.018,179.193 361.425 C 175.755 362.025,173.992 362.698,172.323 364.050 C 171.451 364.756,170.456 364.984,167.110 365.245 C 162.890 365.575,160.629 366.228,159.377 367.480 C 158.627 368.230,157.241 368.449,148.607 369.183 C 143.593 369.610,139.012 370.763,138.306 371.778 C 137.571 372.834,137.987 374.815,139.026 375.210 C 140.598 375.808,148.687 375.727,148.080 375.120 C 145.022 372.062,152.482 369.089,158.130 371.114 C 159.488 371.602,161.511 372.000,162.625 372.000 L 164.651 372.000 164.747 370.128 C 164.910 366.985,171.207 364.998,173.240 367.448 C 173.502 367.763,174.448 368.000,175.449 368.000 L 177.200 368.000 177.200 366.244 C 177.200 363.390,180.825 361.980,184.000 363.600 C 186.789 365.023,188.000 364.735,188.000 362.649 C 188.000 360.655,188.303 360.308,190.803 359.437 C 193.359 358.547,194.674 358.638,195.818 359.782 L 196.800 360.764 196.846 359.482 C 196.871 358.777,196.867 357.926,196.836 357.592 C 196.690 355.990,201.998 354.855,203.343 356.200 C 204.562 357.419,205.200 356.944,205.200 354.816 C 205.200 352.255,207.074 351.385,210.100 352.541 C 212.827 353.582,213.020 353.490,212.863 351.229 C 212.737 349.404,212.812 349.215,213.872 348.666 C 215.134 348.014,218.451 348.353,218.721 349.162 C 219.098 350.293,219.600 349.397,219.600 347.594 C 219.600 345.180,221.004 344.004,223.892 344.001 C 225.363 344.000,225.618 343.869,225.836 343.000 C 226.076 342.042,226.216 342.000,229.154 342.000 L 232.221 342.000 232.073 340.444 C 231.829 337.890,232.455 337.200,235.014 337.200 C 236.690 337.200,237.200 337.340,237.200 337.800 C 237.200 338.242,237.662 338.400,238.957 338.400 C 240.899 338.400,241.200 338.047,241.200 335.767 C 241.200 334.667,241.356 334.400,242.000 334.400 C 242.683 334.400,242.800 334.133,242.800 332.571 C 242.800 330.473,243.319 329.793,245.488 329.046 C 246.320 328.760,247.212 328.107,247.471 327.595 C 248.080 326.390,248.855 325.976,250.043 326.223 C 250.569 326.332,252.125 326.532,253.500 326.668 L 256.000 326.916 256.000 325.058 C 256.000 323.211,256.008 323.200,257.364 323.200 C 258.724 323.200,258.728 323.195,258.700 321.342 C 258.676 319.787,258.840 319.361,259.707 318.730 C 260.276 318.315,260.858 317.446,261.000 316.799 C 261.236 315.726,263.215 313.600,263.978 313.600 C 264.151 313.600,264.775 312.873,265.363 311.984 C 265.951 311.095,266.874 310.167,267.414 309.921 C 267.954 309.675,268.740 308.890,269.161 308.176 C 269.582 307.463,270.433 306.636,271.052 306.339 C 271.670 306.043,272.362 305.440,272.588 305.000 C 273.213 303.787,274.521 302.400,275.041 302.400 C 275.295 302.400,276.180 301.574,277.007 300.565 C 278.465 298.787,278.570 298.734,280.456 298.865 C 282.246 298.989,282.400 298.928,282.400 298.100 C 282.400 297.378,282.637 297.190,283.600 297.150 C 284.260 297.123,285.025 297.077,285.300 297.049 C 285.660 297.012,285.800 295.961,285.800 293.284 L 285.800 289.570 287.000 289.262 C 288.045 288.994,288.217 288.750,288.330 287.377 C 288.459 285.796,289.327 284.400,290.179 284.400 C 290.429 284.400,291.117 283.414,291.707 282.210 C 292.865 279.849,293.818 279.304,296.017 279.743 L 297.204 279.981 296.946 277.207 C 296.695 274.507,296.715 274.421,297.718 273.965 C 298.471 273.622,298.817 273.083,299.007 271.960 C 299.438 269.406,300.519 268.400,302.829 268.400 C 304.968 268.400,305.172 268.101,304.200 266.400 C 302.709 263.792,303.648 262.000,306.505 262.000 L 308.450 262.000 308.180 259.300 C 308.031 257.815,307.852 256.501,307.781 256.381 C 307.557 255.999,308.165 255.399,309.263 254.917 C 309.995 254.596,310.405 254.039,310.583 253.126 C 311.311 249.379,311.795 248.293,312.908 247.903 C 314.393 247.384,314.798 246.496,314.813 243.726 C 314.829 240.673,315.366 240.000,317.786 240.000 L 319.684 240.000 319.479 238.500 C 319.366 237.675,319.041 236.240,318.757 235.311 C 317.922 232.582,318.964 230.800,321.394 230.800 C 323.382 230.800,323.605 230.490,322.400 229.400 C 321.310 228.413,321.332 225.370,322.449 222.774 L 323.299 220.800 325.249 220.800 C 327.403 220.800,327.982 219.639,326.544 218.201 C 324.020 215.677,325.852 208.400,329.010 208.400 L 330.800 208.400 330.800 206.285 C 330.800 204.927,330.505 203.601,329.975 202.585 C 328.099 198.980,330.093 192.685,332.986 193.075 L 334.400 193.265 334.400 189.262 C 334.400 185.786,334.308 185.235,333.700 185.076 C 333.089 184.916,333.084 184.887,333.664 184.846 C 334.260 184.805,334.244 184.628,333.509 183.106 C 332.710 181.452,332.706 181.316,333.341 177.206 C 333.698 174.893,334.103 172.076,334.241 170.947 L 334.491 168.893 336.136 168.870 C 337.042 168.858,337.918 169.062,338.085 169.324 C 338.252 169.586,338.391 167.775,338.394 165.300 L 338.400 160.800 336.500 160.791 C 335.455 160.786,333.815 160.426,332.856 159.991 C 330.041 158.714,329.600 158.868,329.600 161.128 M318.000 167.029 C 318.000 167.154,317.721 167.536,317.381 167.876 C 316.600 168.657,316.131 168.266,316.860 167.442 C 317.406 166.824,318.000 166.609,318.000 167.029 M288.700 292.433 C 288.030 293.167,288.035 293.200,288.800 293.200 C 289.333 293.200,289.600 292.933,289.600 292.400 C 289.600 291.452,289.596 291.452,288.700 292.433 M47.023 298.300 C 47.836 300.147,47.815 315.832,46.996 318.412 C 46.525 319.896,47.478 319.201,48.239 317.506 C 49.932 313.735,48.993 297.600,47.080 297.600 C 46.879 297.600,46.853 297.915,47.023 298.300 M48.551 329.486 C 47.125 329.665,46.800 330.873,46.800 335.997 L 46.800 338.683 48.745 338.496 C 50.530 338.324,50.708 338.387,50.917 339.254 C 51.042 339.774,51.344 340.993,51.588 341.962 C 52.246 344.573,52.191 347.049,51.451 348.179 C 50.371 349.826,51.617 350.329,52.997 348.803 C 54.954 346.641,52.269 328.737,50.067 329.264 C 49.920 329.299,49.238 329.399,48.551 329.486 M229.660 343.439 C 229.619 344.292,229.320 344.813,228.700 345.112 L 227.800 345.546 228.713 345.573 C 229.772 345.604,230.128 344.927,229.890 343.334 L 229.720 342.200 229.660 343.439 M51.067 350.667 C 50.920 350.813,50.800 352.187,50.800 353.719 L 50.800 356.505 52.363 356.296 C 54.359 356.028,54.800 356.496,54.800 358.880 L 54.800 360.800 56.373 360.800 C 57.557 360.800,58.005 360.985,58.183 361.546 C 58.362 362.110,58.967 362.357,60.662 362.556 C 63.957 362.943,65.200 363.973,65.200 366.316 C 65.200 368.158,65.207 368.168,65.858 367.239 C 66.656 366.100,70.393 366.190,72.965 367.410 C 74.435 368.108,74.466 368.168,74.334 370.062 C 74.190 372.144,75.911 372.953,77.194 371.407 C 79.427 368.717,87.821 370.758,87.446 373.900 L 87.243 375.600 91.029 375.600 C 93.486 375.600,95.830 375.331,97.707 374.834 C 101.519 373.824,131.342 373.662,134.102 374.636 C 136.187 375.372,136.400 375.351,136.400 374.410 C 136.400 372.505,135.341 372.400,116.218 372.400 C 99.271 372.400,98.325 372.361,96.931 371.614 C 96.125 371.182,94.641 370.720,93.633 370.587 C 92.625 370.454,91.440 370.181,91.000 369.980 C 90.237 369.632,86.094 369.022,81.065 368.517 C 79.698 368.380,78.647 368.066,78.529 367.760 C 78.258 367.054,75.350 365.704,73.500 365.426 C 72.675 365.302,71.394 365.106,70.653 364.992 C 69.864 364.870,68.727 364.221,67.908 363.426 C 66.586 362.142,64.378 361.215,62.600 361.196 C 61.533 361.185,61.079 360.817,60.496 359.491 C 60.173 358.755,59.608 358.302,58.819 358.144 C 57.775 357.935,57.552 357.631,56.992 355.653 C 56.642 354.414,56.257 353.067,56.138 352.661 C 55.613 350.871,52.203 349.530,51.067 350.667 M50.868 360.000 C 51.113 360.741,52.400 361.045,52.400 360.363 C 52.400 360.090,52.282 359.985,52.137 360.130 C 51.992 360.275,51.603 360.170,51.272 359.897 C 50.779 359.490,50.706 359.509,50.868 360.000 " stroke="none" fill="#724f4f" fill-rule="evenodd"></path><path id="path3" d="M290.750 25.000 C 290.723 25.330,290.655 25.780,290.600 26.000 C 290.545 26.220,290.478 26.850,290.450 27.400 C 290.404 28.313,290.242 28.400,288.576 28.400 C 287.509 28.400,286.852 28.560,286.991 28.785 C 287.465 29.552,289.866 29.870,293.000 29.581 C 294.760 29.419,298.848 29.049,302.085 28.759 L 307.969 28.232 307.916 26.819 C 307.827 24.440,307.676 24.400,298.829 24.400 C 291.981 24.400,290.793 24.488,290.750 25.000 M330.700 24.676 C 330.171 24.814,330.000 25.277,330.000 26.570 L 330.000 28.282 334.290 28.560 C 336.649 28.712,339.348 29.009,340.288 29.220 C 343.085 29.847,347.339 29.765,348.642 29.059 L 349.800 28.432 347.700 28.416 L 345.600 28.400 345.600 26.400 L 345.600 24.400 338.500 24.446 C 334.595 24.472,331.085 24.575,330.700 24.676 M346.000 24.765 C 346.000 25.171,347.023 25.111,347.455 24.678 C 347.608 24.525,347.343 24.400,346.867 24.400 C 346.390 24.400,346.000 24.564,346.000 24.765 M270.051 29.151 C 269.786 29.508,269.659 29.605,269.767 29.367 C 269.876 29.128,269.720 28.933,269.421 28.933 C 269.121 28.933,268.968 29.173,269.081 29.467 C 269.193 29.760,269.041 30.003,268.743 30.006 C 268.293 30.011,268.295 30.072,268.753 30.362 C 269.187 30.637,269.123 30.771,268.453 30.983 C 266.178 31.705,268.646 33.445,271.763 33.316 C 276.051 33.139,277.383 32.433,277.523 30.264 L 277.646 28.359 274.088 28.431 C 271.331 28.486,270.423 28.648,270.051 29.151 M356.400 30.194 C 356.400 32.335,357.804 33.267,361.031 33.267 C 363.755 33.267,364.509 32.659,364.254 30.668 C 364.137 29.751,364.032 28.901,364.020 28.780 C 364.009 28.659,362.290 28.512,360.200 28.454 L 356.400 28.347 356.400 30.194 M256.874 32.346 C 255.582 33.165,256.468 36.157,258.166 36.711 C 261.073 37.660,262.970 36.648,263.121 34.069 L 263.242 32.000 260.321 32.006 C 258.714 32.009,257.163 32.162,256.874 32.346 M366.880 32.480 C 365.172 34.188,367.097 37.029,369.635 36.547 C 373.345 35.842,372.978 32.000,369.200 32.000 C 368.188 32.000,367.144 32.216,366.880 32.480 M245.661 36.451 C 243.745 39.519,247.074 41.999,250.688 40.196 C 251.896 39.593,252.809 36.986,252.173 35.956 C 251.707 35.203,246.178 35.624,245.661 36.451 M374.900 35.865 C 374.091 36.191,374.257 39.453,375.100 39.815 C 375.833 40.129,377.706 40.097,378.900 39.750 C 379.730 39.508,379.890 36.850,379.120 36.080 C 378.649 35.609,375.884 35.468,374.900 35.865 M234.914 40.680 C 234.427 41.186,234.174 41.600,234.352 41.600 C 234.742 41.600,236.198 40.045,235.964 39.877 C 235.874 39.813,235.401 40.174,234.914 40.680 M237.765 40.880 C 237.997 42.872,237.703 43.200,235.691 43.200 C 232.730 43.200,234.111 43.702,237.527 43.868 C 241.933 44.083,242.542 43.793,242.586 41.463 L 242.621 39.600 240.118 39.600 L 237.616 39.600 237.765 40.880 M230.400 45.000 L 230.400 46.800 228.371 46.800 C 225.382 46.800,225.646 48.144,228.669 48.320 C 232.227 48.526,233.600 47.663,233.600 45.220 L 233.600 43.200 232.000 43.200 L 230.400 43.200 230.400 45.000 M382.300 43.646 C 381.351 44.180,381.378 48.105,382.354 51.600 L 383.081 54.200 384.940 54.304 L 386.800 54.408 386.800 51.004 L 386.800 47.600 385.020 47.600 L 383.240 47.600 383.120 45.426 C 383.013 43.488,382.924 43.295,382.300 43.646 M222.800 48.776 L 222.800 50.800 220.771 50.800 C 217.826 50.800,218.034 52.146,221.004 52.311 C 224.269 52.493,225.800 51.421,225.800 48.953 L 225.800 47.000 224.300 46.876 L 222.800 46.752 222.800 48.776 M215.261 52.482 L 215.386 54.200 212.013 54.317 C 208.100 54.454,207.514 54.785,207.680 56.766 C 207.879 59.138,211.913 59.650,212.341 57.357 C 212.551 56.231,213.612 55.200,214.562 55.198 C 217.263 55.191,218.400 54.439,218.400 52.659 L 218.400 50.956 216.768 50.860 L 215.136 50.764 215.261 52.482 M200.837 58.890 C 200.597 59.274,200.400 60.122,200.400 60.773 C 200.400 61.896,200.305 61.962,198.552 62.078 L 196.704 62.200 196.553 63.900 C 196.424 65.349,196.512 65.600,197.151 65.600 C 197.563 65.600,198.437 65.707,199.092 65.838 C 200.177 66.055,200.307 65.965,200.532 64.838 C 200.758 63.709,200.916 63.600,202.336 63.600 C 204.799 63.600,206.000 62.404,206.000 59.952 L 206.000 57.962 203.637 58.076 C 201.906 58.160,201.157 58.378,200.837 58.890 M385.857 63.352 C 385.065 65.004,385.177 67.527,386.432 76.300 L 386.903 79.600 388.634 79.600 C 390.789 79.600,390.889 79.224,390.719 71.817 L 390.600 66.635 388.800 66.617 L 387.000 66.600 386.800 64.200 L 386.600 61.800 385.857 63.352 M190.236 66.058 C 190.352 66.246,190.842 66.403,191.324 66.406 C 191.993 66.411,192.067 66.497,191.636 66.769 C 191.326 66.965,190.849 67.040,190.577 66.936 C 190.304 66.831,189.945 66.966,189.779 67.235 C 189.579 67.557,189.643 67.621,189.965 67.422 C 190.292 67.220,190.412 67.356,190.327 67.833 C 190.241 68.313,190.527 68.633,191.200 68.810 C 191.810 68.971,191.045 69.098,189.242 69.136 C 185.703 69.211,185.278 69.500,185.121 71.932 C 185.002 73.768,184.978 73.798,183.714 73.700 C 182.750 73.626,182.314 73.813,181.974 74.449 C 181.619 75.112,181.629 75.229,182.018 74.989 C 182.383 74.763,182.462 74.964,182.313 75.741 C 182.123 76.739,182.201 76.800,183.655 76.800 C 185.150 76.800,185.200 76.755,185.200 75.421 C 185.200 74.043,185.202 74.042,187.259 73.921 C 188.814 73.830,189.425 73.607,189.759 73.009 C 190.390 71.879,191.276 71.227,192.204 71.213 C 194.199 71.181,195.767 68.344,194.957 66.233 C 194.616 65.343,192.802 65.399,192.794 66.300 C 192.790 66.732,192.675 66.831,192.494 66.560 C 192.151 66.045,189.922 65.550,190.236 66.058 M176.623 77.163 C 176.500 77.362,176.759 77.431,177.199 77.316 C 177.904 77.132,178.000 77.303,178.000 78.753 L 178.000 80.400 176.157 80.400 C 174.579 80.400,174.352 80.301,174.578 79.712 C 174.724 79.334,174.707 79.160,174.542 79.325 C 174.377 79.490,174.189 80.638,174.124 81.876 C 173.981 84.618,174.384 84.317,170.683 84.454 C 168.972 84.518,167.353 84.729,167.086 84.923 C 166.760 85.159,166.831 85.201,167.300 85.050 C 167.685 84.926,168.000 84.999,168.000 85.213 C 168.000 85.426,167.820 85.600,167.600 85.600 C 167.380 85.600,167.200 85.971,167.200 86.424 C 167.200 86.976,167.035 87.148,166.700 86.947 C 166.301 86.707,166.300 86.770,166.697 87.261 C 167.122 87.785,166.960 87.945,165.592 88.355 C 164.357 88.725,163.825 89.175,163.270 90.318 C 162.875 91.133,162.308 91.745,162.012 91.679 C 161.716 91.612,161.322 91.792,161.137 92.079 C 160.862 92.504,160.736 92.500,160.450 92.057 C 159.720 90.925,159.339 92.390,159.251 96.677 L 159.200 99.154 157.500 99.277 L 155.800 99.400 155.678 101.300 L 155.556 103.200 153.578 103.200 C 151.735 103.200,151.600 103.268,151.600 104.200 C 151.600 106.349,155.660 105.642,157.140 103.235 C 157.805 102.154,158.709 101.156,159.148 101.017 C 159.586 100.877,160.402 99.984,160.960 99.032 C 161.519 98.079,162.332 97.207,162.768 97.093 C 163.203 96.979,163.911 96.308,164.340 95.603 C 164.769 94.897,165.685 93.976,166.376 93.556 C 167.066 93.136,167.992 92.182,168.432 91.436 C 168.872 90.689,169.632 89.978,170.120 89.856 C 170.609 89.733,171.335 89.079,171.735 88.402 C 172.135 87.725,173.163 86.728,174.020 86.187 C 174.876 85.647,175.875 84.618,176.240 83.902 C 176.604 83.186,177.509 82.092,178.251 81.471 C 179.779 80.192,180.211 77.520,178.967 77.043 C 178.041 76.687,176.880 76.747,176.623 77.163 M163.260 88.642 C 162.962 88.978,162.799 89.332,162.895 89.429 C 162.992 89.526,163.398 89.244,163.798 88.802 C 164.197 88.361,164.361 88.007,164.162 88.015 C 163.963 88.024,163.557 88.305,163.260 88.642 M388.572 103.119 L 386.944 103.239 386.191 107.319 C 385.216 112.606,385.188 115.500,386.100 116.789 L 386.800 117.778 386.800 115.659 L 386.800 113.540 388.700 113.657 L 390.600 113.775 390.712 109.155 C 390.853 103.366,390.709 102.963,388.572 103.119 M144.480 110.880 C 144.216 111.144,144.000 112.034,144.000 112.857 C 144.000 114.332,143.975 114.356,142.300 114.477 L 140.600 114.600 140.600 118.200 L 140.600 121.800 138.676 121.923 C 136.847 122.040,136.757 122.099,136.876 123.123 C 137.142 125.432,142.000 123.923,142.000 121.531 C 142.000 121.159,142.585 120.454,143.300 119.965 C 145.147 118.702,145.600 118.027,145.600 116.539 C 145.600 115.359,145.751 115.190,147.146 114.815 L 148.692 114.398 148.364 112.699 C 148.183 111.765,148.027 110.865,148.017 110.700 C 147.989 110.208,145.000 110.360,144.480 110.880 M176.274 113.077 C 175.655 113.402,175.093 113.878,175.025 114.134 C 174.020 117.909,173.947 118.790,174.567 119.674 C 175.142 120.496,175.200 120.508,175.200 119.813 C 175.200 119.064,175.212 119.064,175.751 119.801 C 176.267 120.507,176.321 120.471,176.594 119.229 C 176.771 118.422,177.181 117.825,177.642 117.705 C 178.059 117.596,178.400 117.351,178.400 117.161 C 178.400 115.285,184.714 115.174,187.328 117.004 C 188.609 117.902,237.190 117.898,239.338 117.000 C 240.990 116.310,243.037 116.213,243.404 116.807 C 243.542 117.030,243.810 117.117,244.000 117.000 C 244.190 116.883,244.449 116.956,244.577 117.162 C 244.707 117.373,248.200 117.558,252.524 117.582 L 260.239 117.627 260.919 116.200 C 261.827 114.296,261.780 113.810,260.614 113.046 C 259.180 112.106,178.064 112.136,176.274 113.077 M382.409 123.675 C 381.964 124.596,381.600 125.762,381.600 126.266 C 381.600 127.635,380.174 128.293,376.540 128.600 C 373.313 128.873,373.278 128.888,373.107 130.054 C 372.779 132.285,373.747 132.800,378.267 132.800 C 382.760 132.800,383.200 132.579,383.200 130.320 L 383.200 128.800 385.000 128.800 L 386.800 128.800 386.800 125.400 L 386.800 122.000 385.009 122.000 C 383.302 122.000,383.181 122.078,382.409 123.675 M133.085 125.848 C 132.928 126.005,132.800 127.741,132.800 129.707 L 132.800 133.281 130.982 133.136 C 128.687 132.953,128.268 135.271,130.548 135.531 C 132.908 135.801,134.400 134.450,134.400 132.043 C 134.400 131.341,135.420 130.400,136.180 130.400 C 137.151 130.400,137.719 128.773,137.307 127.174 C 136.957 125.814,134.036 124.897,133.085 125.848 M339.800 131.634 C 336.253 132.210,335.600 132.644,335.600 134.425 C 335.600 136.320,335.827 136.400,341.233 136.400 L 345.600 136.400 345.600 134.600 L 345.600 132.800 349.500 132.767 C 353.361 132.735,353.386 132.729,352.000 132.120 C 350.279 131.363,343.200 131.082,339.800 131.634 M322.200 134.771 C 321.760 134.947,320.332 135.223,319.026 135.384 C 315.149 135.861,314.800 136.093,314.800 138.190 L 314.800 140.000 318.217 140.000 C 322.085 140.000,322.695 139.678,322.471 137.757 L 322.317 136.440 324.859 136.317 L 327.400 136.193 325.467 135.297 C 323.343 134.311,323.347 134.312,322.200 134.771 M125.600 139.600 L 125.600 142.400 127.436 142.400 C 130.234 142.400,131.442 140.541,130.410 137.826 C 130.056 136.896,129.814 136.800,127.810 136.800 L 125.600 136.800 125.600 139.600 M303.000 138.812 C 299.465 139.523,299.143 139.790,299.278 141.898 L 299.400 143.800 301.954 143.920 C 303.358 143.987,305.019 143.862,305.645 143.644 C 306.439 143.368,306.865 143.381,307.056 143.690 C 307.206 143.933,307.558 143.247,307.837 142.166 C 308.359 140.151,307.692 138.839,306.133 138.809 C 305.876 138.804,305.426 138.730,305.133 138.645 C 304.840 138.559,303.880 138.634,303.000 138.812 M288.600 142.674 C 285.930 143.277,285.152 143.992,285.278 145.729 L 285.400 147.400 289.362 147.515 C 292.542 147.608,293.246 147.529,292.932 147.115 C 292.717 146.832,292.507 146.015,292.464 145.300 L 292.387 144.000 294.694 143.964 L 297.000 143.927 293.800 143.176 C 290.531 142.409,289.999 142.357,288.600 142.674 M122.098 144.462 C 121.815 144.745,121.600 145.962,121.600 147.280 L 121.600 149.600 123.554 149.600 C 126.261 149.600,127.218 148.296,126.322 145.828 C 125.684 144.073,123.268 143.292,122.098 144.462 M295.714 146.280 C 295.224 146.790,295.047 147.200,295.318 147.200 C 295.765 147.200,297.024 145.629,296.728 145.441 C 296.657 145.396,296.201 145.774,295.714 146.280 M277.800 146.018 C 277.360 146.185,276.174 146.613,275.165 146.969 C 273.269 147.638,273.146 147.939,273.558 150.900 C 273.581 151.065,274.636 151.200,275.903 151.200 L 278.206 151.200 278.063 149.400 L 277.919 147.600 280.249 147.600 C 282.324 147.600,282.492 147.541,281.789 147.063 C 280.488 146.176,278.651 145.696,277.800 146.018 M262.700 149.876 L 260.000 150.037 260.000 152.138 C 260.000 154.871,260.393 155.200,263.656 155.200 C 266.624 155.200,266.777 155.095,266.970 152.908 C 267.101 151.425,267.135 151.397,269.018 151.200 C 274.133 150.666,268.673 149.522,262.700 149.876 M118.480 152.080 C 118.216 152.344,118.000 153.604,118.000 154.880 L 118.000 157.200 119.738 157.200 C 121.857 157.200,122.800 156.316,122.800 154.330 C 122.800 152.067,119.968 150.592,118.480 152.080 M174.900 153.510 C 174.229 153.619,173.999 153.928,173.995 154.728 C 173.978 157.972,173.119 158.311,167.326 157.360 C 163.688 156.763,162.742 156.742,159.816 157.197 C 157.715 157.524,155.749 157.600,154.534 157.400 C 153.471 157.225,152.150 157.107,151.600 157.137 C 151.050 157.168,148.890 157.259,146.800 157.341 C 143.379 157.475,140.800 158.014,140.800 158.596 C 140.800 158.715,146.335 158.713,153.100 158.593 C 159.865 158.473,167.349 158.520,169.732 158.698 C 172.114 158.875,174.135 158.905,174.222 158.764 C 174.310 158.623,174.819 158.591,175.355 158.694 C 177.069 159.021,178.027 156.537,177.038 154.331 C 176.680 153.532,176.112 153.314,174.900 153.510 M331.467 155.467 C 329.413 157.520,332.488 160.773,336.500 160.791 L 338.400 160.800 338.400 158.480 C 338.400 157.204,338.184 155.944,337.920 155.680 C 337.414 155.174,331.941 154.993,331.467 155.467 M131.449 157.790 C 130.408 158.755,130.396 158.817,130.990 160.239 C 131.326 161.041,131.600 161.746,131.600 161.806 C 131.600 161.866,131.879 162.021,132.219 162.152 C 132.734 162.350,132.819 162.070,132.719 160.495 L 132.600 158.600 136.400 158.697 C 140.557 158.804,140.601 158.459,136.565 157.408 C 133.401 156.584,132.693 156.636,131.449 157.790 M114.642 159.551 C 114.564 159.688,114.471 161.105,114.436 162.700 L 114.371 165.600 116.137 165.600 C 118.690 165.600,119.945 163.155,118.849 160.314 C 118.449 159.275,115.142 158.675,114.642 159.551 M327.522 161.100 L 327.400 163.000 323.800 163.000 L 320.200 163.000 320.080 165.300 L 319.960 167.600 321.882 167.600 C 323.590 167.600,323.935 167.444,324.972 166.200 C 325.614 165.430,326.466 164.800,326.867 164.800 C 328.406 164.800,329.600 163.196,329.600 161.128 C 329.600 158.197,327.710 158.172,327.522 161.100 M114.413 168.539 L 114.400 170.877 112.383 170.739 L 110.366 170.600 110.483 172.800 L 110.600 175.000 112.449 175.120 C 114.274 175.238,114.306 175.219,114.949 173.612 C 115.766 171.569,115.800 168.018,115.013 166.976 C 114.474 166.265,114.424 166.395,114.413 168.539 M316.860 167.442 C 316.131 168.266,316.600 168.657,317.381 167.876 C 317.721 167.536,318.000 167.154,318.000 167.029 C 318.000 166.609,317.406 166.824,316.860 167.442 M334.241 170.947 C 334.103 172.076,333.705 174.890,333.357 177.200 C 332.754 181.193,332.759 181.479,333.461 183.000 L 334.199 184.600 334.320 182.735 L 334.441 180.869 336.420 180.597 L 338.400 180.325 338.394 175.062 C 338.387 168.990,338.332 168.840,336.136 168.870 L 334.491 168.893 334.241 170.947 M312.400 172.200 L 312.400 174.000 309.080 174.000 C 305.359 174.000,304.800 174.298,304.800 176.280 C 304.800 177.507,304.707 177.600,303.480 177.600 C 301.080 177.600,301.200 175.885,301.200 210.231 C 301.200 244.614,301.054 242.540,303.499 242.880 C 306.015 243.231,305.916 244.523,305.905 211.179 C 305.893 179.094,305.910 178.800,307.757 178.800 C 308.443 178.800,308.993 178.382,309.600 177.400 C 310.180 176.461,310.766 176.000,311.379 176.000 C 313.194 176.000,314.400 174.551,314.400 172.371 C 314.400 170.535,314.331 170.400,313.400 170.400 C 312.481 170.400,312.400 170.547,312.400 172.200 M110.407 179.477 L 110.400 181.554 108.700 181.677 L 107.000 181.800 106.880 184.100 L 106.760 186.400 108.534 186.400 C 111.530 186.400,113.187 181.732,111.260 178.723 L 110.413 177.400 110.407 179.477 M106.832 191.113 L 106.800 193.625 105.000 193.459 L 103.200 193.292 103.200 196.468 L 103.200 199.644 105.100 199.522 C 106.874 199.408,107.032 199.307,107.477 198.000 C 108.126 196.099,108.089 191.273,107.414 189.800 C 106.877 188.627,106.864 188.657,106.832 191.113 M331.005 193.453 C 329.591 194.866,328.898 200.155,329.855 202.229 L 330.580 203.800 330.711 201.700 C 330.826 199.845,330.945 199.599,331.721 199.595 C 334.206 199.579,334.400 199.329,334.400 196.153 C 334.400 193.619,334.301 193.196,333.700 193.169 C 333.315 193.153,332.682 193.078,332.294 193.004 C 331.906 192.930,331.326 193.132,331.005 193.453 M103.246 207.040 C 103.201 208.263,103.173 208.279,101.200 208.222 L 99.200 208.163 99.200 212.882 L 99.200 217.600 101.141 217.600 L 103.081 217.600 103.782 215.012 C 104.482 212.426,104.457 210.656,103.676 207.400 C 103.311 205.880,103.290 205.862,103.246 207.040 M326.623 209.556 C 325.199 212.308,325.193 216.850,326.611 218.268 C 327.308 218.966,327.326 218.921,327.115 216.996 C 326.814 214.257,326.979 214.000,329.033 214.000 L 330.800 214.000 330.800 211.200 L 330.800 208.400 329.010 208.400 C 327.441 208.400,327.147 208.543,326.623 209.556 M322.449 222.774 C 321.332 225.370,321.310 228.413,322.400 229.400 C 323.192 230.117,323.200 230.099,323.200 227.662 L 323.200 225.200 325.200 225.200 L 327.200 225.200 327.200 223.000 L 327.200 220.800 325.249 220.800 L 323.299 220.800 322.449 222.774 M128.113 222.664 C 127.566 223.820,127.094 224.233,126.084 224.438 C 123.960 224.870,123.200 225.833,123.200 228.093 L 123.200 230.061 125.500 229.932 C 128.105 229.786,128.768 229.255,128.787 227.300 C 128.800 226.029,128.839 226.000,130.592 226.000 C 132.592 226.000,132.983 225.407,132.729 222.755 C 132.517 220.533,129.153 220.467,128.113 222.664 M99.216 229.300 C 99.203 231.759,99.076 232.410,98.600 232.450 C 98.270 232.478,97.820 232.545,97.600 232.600 C 97.380 232.655,96.840 232.722,96.400 232.750 C 95.639 232.798,95.600 233.083,95.600 238.557 C 95.600 245.152,95.384 244.800,99.433 244.800 L 102.000 244.800 102.000 242.980 C 102.000 241.979,101.753 240.674,101.451 240.080 C 101.115 239.419,100.822 237.059,100.696 234.000 C 100.561 230.702,100.277 228.523,99.861 227.600 L 99.231 226.200 99.216 229.300 M120.400 232.000 C 119.541 233.207,119.632 233.631,120.551 232.700 C 121.066 232.178,121.693 230.800,121.415 230.800 C 121.327 230.800,120.870 231.340,120.400 232.000 M319.010 231.980 C 317.556 234.792,318.585 237.200,321.239 237.200 L 323.200 237.200 323.200 234.000 L 323.200 230.800 321.410 230.800 C 319.833 230.800,319.548 230.940,319.010 231.980 M112.927 233.855 C 112.547 234.435,111.598 235.173,110.818 235.494 C 107.797 236.741,106.363 241.442,109.100 241.127 C 110.213 240.998,110.269 240.881,110.354 238.500 L 110.400 237.200 114.000 237.200 L 117.600 237.200 117.600 235.000 L 117.600 232.800 115.609 232.800 C 113.900 232.800,113.521 232.949,112.927 233.855 M315.296 240.795 C 315.023 241.232,314.800 242.593,314.800 243.821 C 314.800 246.492,314.385 247.387,312.908 247.903 C 311.795 248.293,311.311 249.379,310.583 253.126 C 310.405 254.039,309.995 254.596,309.263 254.917 C 307.810 255.555,307.714 255.761,307.974 257.704 L 308.200 259.400 310.100 259.522 L 312.000 259.644 312.000 255.592 L 312.000 251.540 313.900 251.657 L 315.800 251.775 315.915 248.088 L 316.030 244.400 317.582 244.400 C 318.449 244.400,319.222 244.621,319.335 244.900 C 319.446 245.175,319.551 244.185,319.568 242.700 L 319.600 240.000 317.696 240.000 C 316.230 240.000,315.678 240.183,315.296 240.795 M260.000 257.794 L 260.000 274.400 258.600 274.400 C 257.622 274.400,257.200 274.581,257.200 275.000 C 257.200 275.580,257.840 275.769,259.300 275.621 C 259.935 275.556,260.000 276.043,260.000 280.878 L 260.000 286.206 258.200 286.063 C 256.036 285.891,255.847 286.475,257.700 287.604 C 261.610 289.988,261.585 290.120,261.701 266.362 C 261.793 247.437,261.851 245.898,262.500 245.424 C 263.983 244.339,263.099 241.423,261.244 241.282 L 260.000 241.187 260.000 257.794 M257.100 242.032 C 256.715 242.256,256.400 242.711,256.400 243.043 C 256.400 243.376,256.583 243.534,256.807 243.396 C 257.030 243.258,257.109 242.977,256.983 242.772 C 256.856 242.568,257.023 242.400,257.353 242.400 C 257.683 242.400,258.064 242.220,258.200 242.000 C 258.514 241.491,258.003 241.506,257.100 242.032 M159.467 249.067 C 158.985 249.548,159.188 252.445,159.743 253.000 C 161.878 255.135,167.071 253.412,167.027 250.583 L 167.000 248.802 163.367 248.801 C 161.368 248.800,159.613 248.920,159.467 249.067 M172.339 249.500 C 172.306 249.885,172.332 250.740,172.396 251.400 C 172.461 252.060,172.623 260.302,172.757 269.715 C 173.022 288.356,172.948 287.846,175.292 287.174 C 177.722 286.477,177.600 287.494,177.600 267.984 C 177.600 258.129,177.491 249.781,177.357 249.433 C 176.984 248.461,172.424 248.522,172.339 249.500 M256.493 252.800 C 256.493 253.570,256.575 253.885,256.676 253.500 C 256.776 253.115,256.776 252.485,256.676 252.100 C 256.575 251.715,256.493 252.030,256.493 252.800 M148.411 252.793 C 148.140 252.961,148.000 253.807,148.074 254.840 C 148.243 257.204,150.110 257.973,153.374 257.025 L 155.423 256.429 155.413 254.396 L 155.402 252.363 152.138 252.435 C 150.343 252.475,148.666 252.636,148.411 252.793 M137.052 257.300 C 136.919 257.795,136.808 258.605,136.805 259.100 C 136.801 259.905,136.602 260.000,134.914 260.000 C 133.118 260.000,133.062 260.033,133.729 260.700 C 134.632 261.603,138.765 261.592,140.900 260.681 C 142.320 260.075,142.400 259.944,142.400 258.220 L 142.400 256.400 139.847 256.400 C 137.537 256.400,137.270 256.486,137.052 257.300 M118.377 260.344 C 118.364 260.485,118.285 261.256,118.200 262.059 C 117.964 264.291,119.010 265.017,122.345 264.936 C 126.547 264.834,128.000 264.022,128.000 261.776 L 128.000 259.964 123.200 260.026 C 120.560 260.060,118.390 260.203,118.377 260.344 M304.080 262.480 C 302.635 263.925,303.956 267.200,305.984 267.200 C 307.946 267.200,308.400 266.622,308.400 264.120 L 308.400 262.000 306.480 262.000 C 305.424 262.000,304.344 262.216,304.080 262.480 M100.659 265.588 L 100.743 267.600 98.071 267.617 L 95.400 267.634 96.800 268.400 C 98.815 269.503,100.310 269.442,107.921 267.949 L 110.041 267.533 109.921 265.667 L 109.800 263.800 105.188 263.688 L 100.575 263.576 100.659 265.588 M65.840 268.000 C 66.060 268.220,66.169 269.004,66.083 269.743 L 65.926 271.087 61.798 271.354 C 59.528 271.501,56.935 271.503,56.035 271.359 C 54.187 271.064,53.869 271.583,55.289 272.577 C 56.509 273.432,64.053 273.238,78.276 271.987 C 84.047 271.480,84.000 271.501,84.000 269.357 L 84.000 267.600 74.720 267.600 C 68.538 267.600,65.573 267.733,65.840 268.000 M300.062 269.412 C 299.624 269.968,299.150 271.115,299.007 271.960 C 298.820 273.066,298.469 273.622,297.752 273.949 C 296.865 274.353,296.770 274.609,296.878 276.301 L 297.000 278.200 298.800 278.200 L 300.600 278.200 300.715 274.521 L 300.829 270.843 302.715 270.721 C 304.439 270.610,304.611 270.506,304.727 269.500 C 304.912 267.892,301.311 267.824,300.062 269.412 M47.067 279.067 C 46.920 279.213,46.800 280.743,46.800 282.467 L 46.800 285.600 48.700 285.597 C 51.338 285.593,52.505 282.824,51.136 279.819 C 50.679 278.815,47.842 278.291,47.067 279.067 M293.180 279.987 C 292.839 280.187,292.133 281.261,291.612 282.375 C 291.090 283.489,290.452 284.400,290.194 284.400 C 289.328 284.400,288.460 285.786,288.330 287.377 C 288.217 288.751,288.045 288.994,286.996 289.263 C 285.337 289.690,285.377 293.200,287.040 293.200 C 288.289 293.200,289.600 291.868,289.600 290.600 C 289.600 289.705,289.763 289.600,291.151 289.600 C 293.437 289.600,293.763 288.974,293.447 285.191 L 293.181 282.000 295.191 282.000 C 297.043 282.000,297.200 281.925,297.200 281.043 C 297.200 279.686,294.781 279.050,293.180 279.987 M44.060 298.242 C 43.248 299.159,43.671 299.236,44.744 298.366 C 45.283 297.929,45.455 297.607,45.144 297.615 C 44.845 297.624,44.357 297.905,44.060 298.242 M46.882 308.400 C 46.882 315.138,47.003 318.125,47.238 317.200 C 47.690 315.420,47.679 301.460,47.224 299.600 C 47.007 298.710,46.882 301.919,46.882 308.400 M276.995 300.580 C 276.175 301.581,275.295 302.400,275.041 302.400 C 274.521 302.400,273.213 303.787,272.588 305.000 C 272.362 305.440,271.670 306.043,271.052 306.339 C 270.433 306.636,269.582 307.463,269.161 308.176 C 268.740 308.890,267.954 309.675,267.414 309.921 C 266.874 310.167,265.951 311.095,265.363 311.984 C 264.775 312.873,264.151 313.600,263.978 313.600 C 263.215 313.600,261.236 315.726,261.000 316.799 C 260.858 317.446,260.314 318.296,259.792 318.688 C 258.429 319.710,258.205 323.200,259.503 323.200 C 260.089 323.200,260.182 322.905,260.065 321.425 L 259.923 319.650 261.662 319.525 C 263.499 319.393,263.451 319.464,263.557 316.700 C 263.597 315.669,263.713 315.600,265.400 315.600 L 267.200 315.600 267.200 313.800 L 267.200 312.000 269.000 312.000 C 270.781 312.000,270.801 311.985,270.850 310.600 C 270.877 309.830,270.923 308.975,270.950 308.700 C 270.978 308.415,271.775 308.114,272.800 308.000 C 274.595 307.801,274.600 307.796,274.723 306.100 L 274.846 304.400 276.623 304.400 L 278.400 304.400 278.400 302.370 L 278.400 300.340 280.300 300.456 C 281.962 300.559,282.200 300.475,282.200 299.787 C 282.200 297.964,278.701 298.498,276.995 300.580 M43.334 310.000 C 43.334 311.650,43.405 312.325,43.491 311.500 C 43.578 310.675,43.578 309.325,43.491 308.500 C 43.405 307.675,43.334 308.350,43.334 310.000 M43.600 317.643 C 43.600 318.188,44.724 319.301,45.104 319.132 C 45.267 319.059,44.995 318.601,44.500 318.114 C 44.005 317.627,43.600 317.415,43.600 317.643 M248.460 326.363 C 248.167 326.544,247.719 327.104,247.464 327.609 C 247.209 328.113,246.320 328.760,245.488 329.046 C 243.319 329.793,242.800 330.473,242.800 332.571 L 242.800 334.400 244.933 334.400 C 246.107 334.400,247.202 334.265,247.367 334.100 C 247.532 333.935,247.870 333.800,248.119 333.800 C 248.368 333.800,248.599 333.260,248.634 332.600 C 248.668 331.940,248.719 331.265,248.748 331.100 C 248.777 330.935,249.394 330.800,250.120 330.800 C 252.431 330.800,253.788 326.446,251.500 326.370 C 251.005 326.354,250.238 326.272,249.796 326.187 C 249.354 326.103,248.752 326.182,248.460 326.363 M232.391 338.017 C 232.150 338.466,232.009 339.501,232.077 340.317 L 232.200 341.800 234.600 341.800 L 237.000 341.800 237.120 339.500 L 237.240 337.200 235.034 337.200 C 233.222 337.200,232.750 337.346,232.391 338.017 M47.266 338.751 C 46.607 339.169,46.701 346.813,47.372 347.330 C 47.671 347.561,47.657 347.719,47.325 347.855 C 46.991 347.992,47.050 348.256,47.525 348.747 C 47.969 349.206,48.302 349.300,48.500 349.022 C 48.698 348.743,48.902 348.736,49.100 349.000 C 50.938 351.451,52.713 346.430,51.588 341.962 C 51.344 340.993,51.046 339.795,50.926 339.300 C 50.694 338.347,48.437 338.008,47.266 338.751 M225.836 343.000 C 225.618 343.869,225.363 344.000,223.892 344.001 C 221.004 344.004,219.600 345.180,219.600 347.594 C 219.600 349.540,219.635 349.600,220.757 349.600 C 222.049 349.600,222.400 349.038,222.400 346.967 L 222.400 345.600 224.981 345.600 C 228.398 345.600,229.479 345.083,229.681 343.353 L 229.839 342.000 227.963 342.000 C 226.295 342.000,226.059 342.111,225.836 343.000 M213.879 348.650 C 212.862 349.192,212.769 349.421,212.879 351.124 L 213.000 353.000 215.334 353.121 C 218.217 353.270,218.800 352.839,218.800 350.559 C 218.800 348.701,218.940 348.814,215.900 348.226 C 215.405 348.130,214.496 348.321,213.879 348.650 M206.300 352.465 C 205.304 352.829,205.200 353.052,205.200 354.833 L 205.200 356.800 207.957 356.800 C 210.985 356.800,211.200 356.628,211.200 354.206 C 211.200 352.310,208.931 351.504,206.300 352.465 M197.951 356.272 C 197.062 356.824,196.895 357.224,196.857 358.893 L 196.813 360.863 199.706 360.732 C 202.087 360.623,202.686 360.458,203.086 359.800 C 203.807 358.612,203.733 356.137,202.967 355.843 C 201.772 355.384,198.999 355.622,197.951 356.272 M52.072 356.291 C 50.814 356.446,50.749 356.534,50.846 357.927 C 50.958 359.531,51.485 360.518,52.045 360.172 C 52.240 360.051,52.400 360.164,52.400 360.423 C 52.400 360.687,52.731 360.807,53.154 360.696 C 54.019 360.470,55.471 361.833,54.675 362.124 C 54.090 362.337,54.711 363.533,55.738 364.173 C 56.256 364.496,56.516 364.454,56.805 364.000 C 57.060 363.601,57.190 363.568,57.194 363.900 C 57.198 364.244,57.950 364.400,59.600 364.400 L 62.000 364.400 62.000 366.200 L 62.000 368.000 63.600 368.000 L 65.200 368.000 65.200 366.227 C 65.200 363.981,63.910 362.937,60.662 362.556 C 58.967 362.357,58.362 362.110,58.183 361.546 C 58.005 360.985,57.557 360.800,56.373 360.800 L 54.800 360.800 54.800 358.880 C 54.800 357.181,54.255 355.879,53.620 356.064 C 53.499 356.099,52.802 356.202,52.072 356.291 M190.623 359.462 C 188.340 360.284,188.000 360.697,188.000 362.649 L 188.000 364.400 189.953 364.400 C 192.025 364.400,192.381 364.006,192.395 361.700 C 192.399 360.887,192.594 360.800,194.400 360.800 C 196.572 360.800,196.899 360.395,195.511 359.423 C 194.446 358.677,192.764 358.690,190.623 359.462 M178.900 363.664 C 177.283 364.448,177.200 364.575,177.200 366.244 L 177.200 368.000 179.900 367.987 C 182.758 367.973,184.400 367.179,184.400 365.812 C 184.400 365.391,184.581 365.261,184.900 365.453 C 185.240 365.657,185.224 365.537,184.851 365.077 C 184.386 364.503,184.386 364.397,184.851 364.383 C 185.828 364.353,182.633 362.833,181.600 362.837 C 181.050 362.838,179.835 363.211,178.900 363.664 M66.100 366.842 C 65.211 367.763,65.558 368.000,67.800 368.000 L 70.000 368.000 70.000 370.021 L 70.000 372.042 72.100 371.921 L 74.200 371.800 74.320 369.955 C 74.435 368.176,74.386 368.084,72.950 367.403 C 71.011 366.483,66.782 366.136,66.100 366.842 M167.800 366.922 C 165.226 367.691,164.884 368.036,164.743 370.000 L 164.613 371.800 167.307 371.918 L 170.000 372.037 170.000 370.018 L 170.000 368.000 171.886 368.000 C 173.537 368.000,173.699 367.928,173.186 367.419 C 172.363 366.602,169.694 366.356,167.800 366.922 M78.950 370.444 C 76.439 371.152,76.440 372.000,78.951 372.000 L 81.200 372.000 81.200 373.800 L 81.200 375.600 84.200 375.600 C 85.850 375.600,87.207 375.555,87.215 375.500 C 87.778 371.774,87.598 371.510,84.000 370.802 C 80.373 370.087,80.247 370.079,78.950 370.444 M150.800 370.944 C 147.620 371.634,146.426 373.466,148.080 375.120 C 149.223 376.263,155.964 375.636,155.234 374.455 C 154.406 373.116,155.235 371.941,156.922 372.063 C 158.919 372.207,159.312 371.457,157.558 370.845 C 155.967 370.291,153.657 370.324,150.800 370.944 M97.800 374.773 L 95.400 375.400 99.880 375.513 C 104.218 375.622,104.358 375.654,104.323 376.513 C 104.303 377.001,104.312 377.809,104.343 378.310 L 104.400 379.219 117.600 379.189 C 125.641 379.171,130.800 379.011,130.800 378.780 C 130.800 378.571,130.575 378.397,130.300 378.394 C 129.967 378.390,130.000 378.258,130.400 378.000 C 130.796 377.744,130.831 377.610,130.503 377.606 C 130.214 377.603,130.062 377.222,130.141 376.700 C 130.265 375.874,130.538 375.783,133.438 375.600 L 136.600 375.400 134.400 374.726 C 131.258 373.764,101.520 373.802,97.800 374.773 " stroke="none" fill="#caa7a7" fill-rule="evenodd"></path><path id="path4" d="" stroke="none" fill="#00ffff" fill-rule="evenodd"></path></g></svg>